<?xml version="1.0" encoding="UTF-8"?>
<svg width="1266px" height="881px" viewBox="0 0 1266 881" version="1.1" xmlns="http://www.w3.org/2000/svg" xmlns:xlink="http://www.w3.org/1999/xlink">
    <!-- Generator: Sketch 59 (86127) - https://sketch.com -->
    <title>background</title>
    <desc>Created with Sketch.</desc>
    <defs>
        <rect id="path-1" x="0" y="0" width="1266" height="900"></rect>
        <linearGradient x1="39.5825108%" y1="4.41267968%" x2="2.76867691%" y2="43.9444809%" id="linearGradient-3">
            <stop stop-color="#0093FF" offset="0%"></stop>
            <stop stop-color="#00C1FF" offset="100%"></stop>
        </linearGradient>
        <linearGradient x1="39.5825108%" y1="4.40863302%" x2="2.76867691%" y2="43.9439434%" id="linearGradient-4">
            <stop stop-color="#003EFF" offset="0%"></stop>
            <stop stop-color="#00C8FF" offset="100%"></stop>
        </linearGradient>
    </defs>
    <g id="Page-1" stroke="none" stroke-width="1" fill="none" fill-rule="evenodd" opacity="0.471214658">
        <g id="background">
            <mask id="mask-2" fill="white">
                <use xlink:href="#path-1"></use>
            </mask>
            <g id="path-1"></g>
            <g id="interectionsShapes" mask="url(#mask-2)">
                <g transform="translate(-5165.000000, -2429.000000)" id="Petals-outlines">
                    <g transform="translate(0.775000, 0.460938)">
                        <g id="Group" transform="translate(0.528510, 0.528353)">
                            <path d="M5395.88845,2870.83099 C5918.2359,2870.86491 6341.65466,2447.28359 6341.62072,1924.73563 C6341.58679,1402.18768 5918.113,978.551378 5395.76556,978.517464 C5217.74319,978.505906 4898.84505,978.485201 4439.07113,978.45535 C4446.36817,1438.9524 4450.02222,1754.33822 4450.03328,1924.61282 C4450.06722,2447.16077 4873.541,2870.79708 5395.88845,2870.83099 Z" id="Petal-Blue" stroke="#828282" stroke-width="4.39453125" transform="translate(5390.345923, 1924.643171) rotate(167.000000) translate(-5390.345923, -1924.643171) "></path>
                            <path d="M5317.34041,2885.20406 C5770.80887,2885.26634 6138.36717,2517.51645 6138.30487,2063.81168 C6138.24256,1610.10691 5770.58323,1242.25604 5317.11477,1242.19376 C5162.5672,1242.17253 4885.72034,1242.1345 4486.57419,1242.07968 C4492.93797,1641.90891 4496.13001,1915.7444 4496.15031,2063.58614 C4496.21262,2517.2909 4863.87195,2885.14178 5317.34041,2885.20406 Z" id="Petal-Green" stroke="#00A2FF" stroke-width="8.7890625" transform="translate(5312.439530, 2063.641874) rotate(124.000000) translate(-5312.439530, -2063.641874) "></path>
                            <path d="M3934.48556,6681.83263 C5460.29008,6681.60662 6697.38226,5444.47052 6697.60827,3918.61181 C6697.83429,2392.7531 5461.10857,1155.98344 3935.30405,1156.20945 C3415.29131,1156.28648 2483.77297,1156.42446 1140.74903,1156.6234 C1161.77755,2501.28672 1172.25499,3422.22235 1172.18134,3919.43027 C1171.95532,5445.28898 2408.68105,6682.05864 3934.48556,6681.83263 Z" id="Petal-thin-orange" stroke="url(#linearGradient-3)" stroke-width="1.7578125" transform="translate(3919.178645, 3919.021042) rotate(-135.000000) translate(-3919.178645, -3919.021042) "></path>
                            <path d="M5910.63741,3301.72163 C6249.47013,3301.76748 6524.11115,3027.0846 6524.0653,2688.20024 C6524.01944,2349.31588 6249.30408,2074.55865 5910.47135,2074.5128 C5794.99304,2074.49717 5588.1324,2074.46918 5289.88944,2074.42881 C5294.64385,2373.07207 5297.02852,2577.60719 5297.04346,2688.03419 C5297.08932,3026.91855 5571.80469,3301.67577 5910.63741,3301.72163 Z" id="Petal-orange" stroke="url(#linearGradient-4)" stroke-width="20.2148438" transform="translate(5906.977369, 2688.075217) rotate(-57.000000) translate(-5906.977369, -2688.075217) "></path>
                        </g>
                    </g>
                </g>
            </g>
        </g>
    </g>
</svg>