<?xml version="1.0" encoding="utf-8"?>
<!-- created with cmmn-js / http://bpmn.io -->
<!DOCTYPE svg PUBLIC "-//W3C//DTD SVG 1.1//EN" "http://www.w3.org/Graphics/SVG/1.1/DTD/svg11.dtd">
<svg xmlns="http://www.w3.org/2000/svg" xmlns:xlink="http://www.w3.org/1999/xlink" width="2031" height="591" viewBox="-1772 -213 2031 591" version="1.1"><defs><marker id="association-start" viewBox="0 0 20 20" refX="1" refY="10" markerWidth="10" markerHeight="10" orient="auto"><path d="M 11 5 L 1 10 L 11 15" style="fill: none; stroke-width: 1.5px; stroke-linecap: round; stroke-dasharray: 10000, 1; stroke: black;"></path></marker><marker id="association-end" viewBox="0 0 20 20" refX="12" refY="10" markerWidth="10" markerHeight="10" orient="auto"><path d="M 1 5 L 11 10 L 1 15" style="fill: none; stroke-width: 1.5px; stroke-linecap: round; stroke-dasharray: 10000, 1; stroke: black;"></path></marker></defs><g class="djs-group"><g class="djs-element djs-shape selected" data-element-id="CasePlanModel_09iqv6o" style="display: block;" transform="matrix(1 0 0 1 -1766 -189)"><g class="djs-visual"><rect x="0" y="0" width="2019" height="561" rx="0" ry="0" style="stroke: black; stroke-width: 2px; fill: white; fill-opacity: 0.95;"/><polygon points="10,0 20,-18 100,-18 110,0" style="fill: white; stroke: black; stroke-width: 2px; fill-opacity: 0.95; pointer-events: all;"/><text class="djs-label" style="font-family: Arial, sans-serif; font-size: 12px;" transform="matrix(1 0 0 1 25 -13)"><tspan x="0" y="10.5"/></text></g><rect x="0" y="0" width="2019" height="561" class="djs-hit" style="fill: none; stroke-opacity: 0; stroke: white; stroke-width: 15px;"/><rect x="-6" y="-24" width="2031" height="591" class="djs-outline" style="fill: none;"/></g><g class="djs-children"><g class="djs-group"><g class="djs-element djs-shape" data-element-id="PlanItem_181t6jt" style="display: block;" transform="matrix(1 0 0 1 -1698 -53)"><g class="djs-visual"><polygon points="20,234 0,214 0,20 20,0 328,0 348,20 348,214 328,234" style="fill-opacity: 0.95; fill: white; stroke: black; stroke-width: 2px;"/><text class="djs-label" style="font-family: Arial, sans-serif; font-size: 12px;" transform="matrix(1 0 0 1 20 0)"><tspan x="5" y="15.5">Vorverfahren (NPOL/LPOL)</tspan></text><rect x="0" y="0" width="14" height="14" rx="0" ry="0" style="stroke: black; stroke-width: 1px; fill: white;" transform="matrix(1 0 0 1 167 217)"/><path d="m167,217 m 2,7 l 10,0" style="fill: none; stroke-width: 2px; stroke: black;"/></g><rect x="0" y="0" width="348" height="234" class="djs-hit" style="fill: none; stroke-opacity: 0; stroke: white; stroke-width: 15px;"/><rect x="-6" y="-6" width="360" height="246" class="djs-outline" style="fill: none;"/></g><g class="djs-children"><g class="djs-group"><g class="djs-element djs-shape" data-element-id="PlanItem_1asz30q" style="display: block;" transform="matrix(1 0 0 1 -1674 9)"><g class="djs-visual"><rect x="0" y="0" width="100" height="80" rx="10" ry="10" style="stroke: black; stroke-width: 2px; fill: white;"/><text class="djs-label" style="font-family: Arial, sans-serif; font-size: 12px;"><tspan x="7.8046875" y="43.5">ED Behandlung</tspan></text></g><rect x="0" y="0" width="100" height="80" class="djs-hit" style="fill: none; stroke-opacity: 0; stroke: white; stroke-width: 15px;"/><rect x="-6" y="-6" width="112" height="92" class="djs-outline" style="fill: none;"/></g></g><g class="djs-group"><g class="djs-element djs-shape" data-element-id="PlanItem_0ihb3fo" style="display: block;" transform="matrix(1 0 0 1 -1538 9)"><g class="djs-visual"><rect x="0" y="0" width="100" height="80" rx="10" ry="10" style="stroke: black; stroke-width: 2px; fill: white;"/><text class="djs-label" style="font-family: Arial, sans-serif; font-size: 12px;"><tspan x="22.8193359375" y="29.5">Screening </tspan><tspan x="7.4765625" y="43.5">durchführen/prü</tspan><tspan x="41.99609375" y="57.5">fen</tspan></text></g><rect x="0" y="0" width="100" height="80" class="djs-hit" style="fill: none; stroke-opacity: 0; stroke: white; stroke-width: 15px;"/><rect x="-6" y="-6" width="112" height="92" class="djs-outline" style="fill: none;"/></g></g><g class="djs-group"><g class="djs-element djs-shape" data-element-id="PlanItem_1te867s" style="display: block;" transform="matrix(1 0 0 1 -1586 117)"><g class="djs-visual"><rect x="0" y="0" width="100" height="40" rx="24" ry="24" style="stroke: black; stroke-width: 2px; fill: white;"/><text class="djs-label" style="font-family: Arial, sans-serif; font-size: 12px;"><tspan x="10.9833984375" y="23.5">Person erfasst</tspan></text></g><rect x="0" y="0" width="100" height="40" class="djs-hit" style="fill: none; stroke-opacity: 0; stroke: white; stroke-width: 15px;"/><rect x="-6" y="-6" width="112" height="52" class="djs-outline" style="fill: none;"/></g></g><g class="djs-group"><g class="djs-element djs-shape" data-element-id="TextAnnotation_1g2goyg" style="display: block;" transform="matrix(1 0 0 1 -1471 94)"><g class="djs-visual"><rect x="0" y="0" width="100" height="30" rx="0" ry="0" style="stroke: none; stroke-width: 2px; fill: none;"/><path d="m 0, 0 m 10,0 l -10,0 l 0,30 l 10,0" style="fill: none; stroke-width: 2px; stroke: black;"/><text class="djs-label" style="font-family: Arial, sans-serif; font-size: 12px;"><tspan x="5" y="11.5">Sobald beide </tspan><tspan x="5" y="25.5">Tasks erledigt</tspan></text></g><rect x="0" y="0" width="100" height="30" class="djs-hit" style="fill: none; stroke-opacity: 0; stroke: white; stroke-width: 15px;"/><rect x="-6" y="-6" width="112" height="42" class="djs-outline" style="fill: none;"/></g></g><g class="djs-group"><g class="djs-element djs-shape" data-element-id="EntryCriterion_1hlbicy" style="display: block;" transform="matrix(1 0 0 1 -1544 103)"><g class="djs-visual"><polygon points="10,0 20,14 10,28 0,14" style="stroke: black; stroke-width: 2px; fill: white;"/></g><rect x="0" y="0" width="20" height="28" class="djs-hit" style="fill: none; stroke-opacity: 0; stroke: white; stroke-width: 15px;"/><rect x="-6" y="-6" width="32" height="40" class="djs-outline" style="fill: none;"/></g></g></g></g><g class="djs-group"><g class="djs-element djs-shape" data-element-id="PlanItem_1vnasux" style="display: block;" transform="matrix(1 0 0 1 -1691 -164)"><g class="djs-visual"><rect x="0" y="0" width="100" height="80" rx="10" ry="10" style="stroke: black; stroke-width: 2px; fill: white;"/><text class="djs-label" style="font-family: Arial, sans-serif; font-size: 12px;"><tspan x="11.978515625" y="29.5">Antragstellung </tspan><tspan x="9.9609375" y="43.5">entgegennehm</tspan><tspan x="43.1630859375" y="57.5">en</tspan></text></g><rect x="0" y="0" width="100" height="80" class="djs-hit" style="fill: none; stroke-opacity: 0; stroke: white; stroke-width: 15px;"/><rect x="-6" y="-6" width="112" height="92" class="djs-outline" style="fill: none;"/></g></g><g class="djs-group"><g class="djs-element djs-shape" data-element-id="PlanItem_0fjixce" style="display: block;" transform="matrix(1 0 0 1 -1546 -144)"><g class="djs-visual"><rect x="0" y="0" width="100" height="40" rx="24" ry="24" style="stroke: black; stroke-width: 2px; fill: white;"/><text class="djs-label" style="font-family: Arial, sans-serif; font-size: 12px;"><tspan x="11.8115234375" y="23.5">Antrag gestellt</tspan></text></g><rect x="0" y="0" width="100" height="40" class="djs-hit" style="fill: none; stroke-opacity: 0; stroke: white; stroke-width: 15px;"/><rect x="-6" y="-6" width="112" height="52" class="djs-outline" style="fill: none;"/></g></g><g class="djs-group"><g class="djs-element djs-shape" data-element-id="PlanItem_08fqej5" style="display: block;" transform="matrix(1 0 0 1 -1283 -55)"><g class="djs-visual"><polygon points="20,237 0,217 0,20 20,0 464,0 484,20 484,217 464,237" style="fill-opacity: 0.95; fill: white; stroke: black; stroke-width: 2px;"/><text class="djs-label" style="font-family: Arial, sans-serif; font-size: 12px;" transform="matrix(1 0 0 1 20 0)"><tspan x="5" y="15.5">Registrierung</tspan></text><rect x="0" y="0" width="14" height="14" rx="0" ry="0" style="stroke: black; stroke-width: 1px; fill: white;" transform="matrix(1 0 0 1 235 220)"/><path d="m235,220 m 2,7 l 10,0" style="fill: none; stroke-width: 2px; stroke: black;"/></g><rect x="0" y="0" width="484" height="237" class="djs-hit" style="fill: none; stroke-opacity: 0; stroke: white; stroke-width: 15px;"/><rect x="-6" y="-6" width="496" height="249" class="djs-outline" style="fill: none;"/></g><g class="djs-children"><g class="djs-group"><g class="djs-element djs-shape" data-element-id="PlanItem_19x2xyj" style="display: block;" transform="matrix(1 0 0 1 -1138 -19)"><g class="djs-visual"><rect x="0" y="0" width="100" height="80" rx="10" ry="10" style="stroke: black; stroke-width: 2px; fill: white;"/><text class="djs-label" style="font-family: Arial, sans-serif; font-size: 12px;"><tspan x="18.48046875" y="22.5">Meldung an </tspan><tspan x="7.81640625" y="36.5">Registrierungsb</tspan><tspan x="31.154296875" y="50.5">ehörde </tspan><tspan x="24.328125" y="64.5">(Fristen..)</tspan></text></g><rect x="0" y="0" width="100" height="80" class="djs-hit" style="fill: none; stroke-opacity: 0; stroke: white; stroke-width: 15px;"/><rect x="-6" y="-6" width="112" height="92" class="djs-outline" style="fill: none;"/></g></g><g class="djs-group"><g class="djs-element djs-shape" data-element-id="PlanItem_17dzvyt" style="display: block;" transform="matrix(1 0 0 1 -993 -19)"><g class="djs-visual"><rect x="0" y="0" width="100" height="80" rx="10" ry="10" style="stroke: black; stroke-width: 2px; fill: white;"/><text class="djs-label" style="font-family: Arial, sans-serif; font-size: 12px;"><tspan x="5.982421875" y="36.5">Antragsregistrier</tspan><tspan x="12.6484375" y="50.5">ung (Fristen..)</tspan></text></g><rect x="0" y="0" width="100" height="80" class="djs-hit" style="fill: none; stroke-opacity: 0; stroke: white; stroke-width: 15px;"/><rect x="-6" y="-6" width="112" height="92" class="djs-outline" style="fill: none;"/></g></g><g class="djs-group"><g class="djs-element djs-shape" data-element-id="PlanItem_067mr79" style="display: block;" transform="matrix(1 0 0 1 -1040 85)"><g class="djs-visual"><rect x="0" y="0" width="100" height="40" rx="24" ry="24" style="stroke: black; stroke-width: 2px; fill: white;"/><text class="djs-label" style="font-family: Arial, sans-serif; font-size: 12px;"><tspan x="5.8173828125" y="23.5">Antrag registriert</tspan></text></g><rect x="0" y="0" width="100" height="40" class="djs-hit" style="fill: none; stroke-opacity: 0; stroke: white; stroke-width: 15px;"/><rect x="-6" y="-6" width="112" height="52" class="djs-outline" style="fill: none;"/></g></g><g class="djs-group"><g class="djs-element djs-shape" data-element-id="TextAnnotation_00m7x3z" style="display: block;" transform="matrix(1 0 0 1 -919 70)"><g class="djs-visual"><rect x="0" y="0" width="100" height="30" rx="0" ry="0" style="stroke: none; stroke-width: 2px; fill: none;"/><path d="m 0, 0 m 10,0 l -10,0 l 0,30 l 10,0" style="fill: none; stroke-width: 2px; stroke: black;"/><text class="djs-label" style="font-family: Arial, sans-serif; font-size: 12px;"><tspan x="5" y="11.5">Sobald beide </tspan><tspan x="5" y="25.5">Tasks erledigt</tspan></text></g><rect x="0" y="0" width="100" height="30" class="djs-hit" style="fill: none; stroke-opacity: 0; stroke: white; stroke-width: 15px;"/><rect x="-6" y="-6" width="112" height="42" class="djs-outline" style="fill: none;"/></g></g><g class="djs-group"><g class="djs-element djs-shape" data-element-id="TextAnnotation_0v3mufb" style="display: block;" transform="matrix(1 0 0 1 -1261 6)"><g class="djs-visual"><rect x="0" y="0" width="100" height="30" rx="0" ry="0" style="stroke: none; stroke-width: 2px; fill: none;"/><path d="m 0, 0 m 10,0 l -10,0 l 0,30 l 10,0" style="fill: none; stroke-width: 2px; stroke: black;"/><text class="djs-label" style="font-family: Arial, sans-serif; font-size: 12px;"><tspan x="5" y="18.5">Antrag gestellt</tspan></text></g><rect x="0" y="0" width="100" height="30" class="djs-hit" style="fill: none; stroke-opacity: 0; stroke: white; stroke-width: 15px;"/><rect x="-6" y="-6" width="112" height="42" class="djs-outline" style="fill: none;"/></g></g><g class="djs-group"><g class="djs-element djs-shape" data-element-id="TextAnnotation_0ez19g4" style="display: block;" transform="matrix(1 0 0 1 -1253 82)"><g class="djs-visual"><rect x="0" y="0" width="100" height="30" rx="0" ry="0" style="stroke: none; stroke-width: 2px; fill: none;"/><path d="m 0, 0 m 10,0 l -10,0 l 0,30 l 10,0" style="fill: none; stroke-width: 2px; stroke: black;"/><text class="djs-label" style="font-family: Arial, sans-serif; font-size: 12px;"><tspan x="5" y="18.5">Person erfasst</tspan></text></g><rect x="0" y="0" width="100" height="30" class="djs-hit" style="fill: none; stroke-opacity: 0; stroke: white; stroke-width: 15px;"/><rect x="-6" y="-6" width="112" height="42" class="djs-outline" style="fill: none;"/></g></g><g class="djs-group"><g class="djs-element djs-shape" data-element-id="EntryCriterion_0e3qzys" style="display: block;" transform="matrix(1 0 0 1 -996 71)"><g class="djs-visual"><polygon points="10,0 20,14 10,28 0,14" style="stroke: black; stroke-width: 2px; fill: white;"/></g><rect x="0" y="0" width="20" height="28" class="djs-hit" style="fill: none; stroke-opacity: 0; stroke: white; stroke-width: 15px;"/><rect x="-6" y="-6" width="32" height="40" class="djs-outline" style="fill: none;"/></g></g></g></g><g class="djs-group"><g class="djs-element djs-shape" data-element-id="PlanItem_1hsqx8y" style="display: block;" transform="matrix(1 0 0 1 -709 -53)"><g class="djs-visual"><polygon points="20,334 0,314 0,20 20,0 437,0 457,20 457,314 437,334" style="fill-opacity: 0.95; fill: white; stroke: black; stroke-width: 2px;"/><text class="djs-label" style="font-family: Arial, sans-serif; font-size: 12px;" transform="matrix(1 0 0 1 20 0)"><tspan x="5" y="15.5">Einreichung</tspan></text><rect x="0" y="0" width="30" height="24" rx="0" ry="0" style="stroke: black; stroke-width: 1.5px; fill: white;" transform="matrix(1 0 0 1 213.5 -17)"/><path d="m213.5,-17 m 0,12 l 30,0 m -20,-12 l 0, 24 m 10, -24 l 0, 24 m -10, -6 l 10,0" style="fill: none; stroke-width: 1.5px; stroke: black;"/><rect x="0" y="0" width="14" height="14" rx="0" ry="0" style="stroke: black; stroke-width: 1px; fill: white;" transform="matrix(1 0 0 1 221.5 317)"/><path d="m221.5,317 m 2,7 l 10,0" style="fill: none; stroke-width: 2px; stroke: black;"/></g><rect x="0" y="0" width="457" height="334" class="djs-hit" style="fill: none; stroke-opacity: 0; stroke: white; stroke-width: 15px;"/><rect x="-6" y="-6" width="469" height="346" class="djs-outline" style="fill: none;"/></g><g class="djs-children"><g class="djs-group"><g class="djs-element djs-shape" data-element-id="PlanItem_11oy1wh" style="display: block;" transform="matrix(1 0 0 1 -689 -8)"><g class="djs-visual"><rect x="0" y="0" width="100" height="80" rx="10" ry="10" style="stroke: black; stroke-width: 2px; fill: white;"/><text class="djs-label" style="font-family: Arial, sans-serif; font-size: 12px;"><tspan x="10.306640625" y="43.5">Ladung erstellt</tspan></text></g><rect x="0" y="0" width="100" height="80" class="djs-hit" style="fill: none; stroke-opacity: 0; stroke: white; stroke-width: 15px;"/><rect x="-6" y="-6" width="112" height="92" class="djs-outline" style="fill: none;"/></g></g><g class="djs-group"><g class="djs-element djs-shape" data-element-id="PlanItem_0ad1ysa" style="display: block;" transform="matrix(1 0 0 1 -566 -8)"><g class="djs-visual"><rect x="0" y="0" width="100" height="80" rx="10" ry="10" style="stroke: black; stroke-width: 2px; fill: white;"/><text class="djs-label" style="font-family: Arial, sans-serif; font-size: 12px;"><tspan x="10.4755859375" y="36.5">Einreichungspl</tspan><tspan x="33.15234375" y="50.5">anung</tspan></text></g><rect x="0" y="0" width="100" height="80" class="djs-hit" style="fill: none; stroke-opacity: 0; stroke: white; stroke-width: 15px;"/><rect x="-6" y="-6" width="112" height="92" class="djs-outline" style="fill: none;"/></g></g><g class="djs-group"><g class="djs-element djs-shape" data-element-id="PlanItem_0tst5di" style="display: block;" transform="matrix(1 0 0 1 -459 -8)"><g class="djs-visual"><rect x="0" y="0" width="100" height="80" rx="10" ry="10" style="stroke: black; stroke-width: 2px; fill: white;"/><text class="djs-label" style="font-family: Arial, sans-serif; font-size: 12px;"><tspan x="8.6474609375" y="36.5">Antragseinreich</tspan><tspan x="39.826171875" y="50.5">ung</tspan></text></g><rect x="0" y="0" width="100" height="80" class="djs-hit" style="fill: none; stroke-opacity: 0; stroke: white; stroke-width: 15px;"/><rect x="-6" y="-6" width="112" height="92" class="djs-outline" style="fill: none;"/></g></g><g class="djs-group"><g class="djs-element djs-shape" data-element-id="PlanItem_1qb2dwp" style="display: block;" transform="matrix(1 0 0 1 -555 92)"><g class="djs-visual"><rect x="0" y="0" width="100" height="40" rx="24" ry="24" style="stroke: black; stroke-width: 2px; fill: white;"/><text class="djs-label" style="font-family: Arial, sans-serif; font-size: 12px;"><tspan x="32.6591796875" y="16.5">Antrag </tspan><tspan x="20.314453125" y="30.5">eingereicht</tspan></text></g><rect x="0" y="0" width="100" height="40" class="djs-hit" style="fill: none; stroke-opacity: 0; stroke: white; stroke-width: 15px;"/><rect x="-6" y="-6" width="112" height="52" class="djs-outline" style="fill: none;"/></g></g><g class="djs-group"><g class="djs-element djs-shape" data-element-id="TextAnnotation_1s45p3q" style="display: block;" transform="matrix(1 0 0 1 -411 97)"><g class="djs-visual"><rect x="0" y="0" width="100" height="30" rx="0" ry="0" style="stroke: none; stroke-width: 2px; fill: none;"/><path d="m 0, 0 m 10,0 l -10,0 l 0,30 l 10,0" style="fill: none; stroke-width: 2px; stroke: black;"/><text class="djs-label" style="font-family: Arial, sans-serif; font-size: 12px;"><tspan x="5" y="11.5">Sobald die 3 </tspan><tspan x="5" y="25.5">Tasks erledigt</tspan></text></g><rect x="0" y="0" width="100" height="30" class="djs-hit" style="fill: none; stroke-opacity: 0; stroke: white; stroke-width: 15px;"/><rect x="-6" y="-6" width="112" height="42" class="djs-outline" style="fill: none;"/></g></g><g class="djs-group"><g class="djs-element djs-shape" data-element-id="PlanItem_18axmw4" style="display: block;" transform="matrix(1 0 0 1 -555 174)"><g class="djs-visual"><rect x="0" y="0" width="100" height="80" rx="10" ry="10" style="stroke: black; stroke-width: 2px; fill: white; stroke-dasharray: 12, 12.4; stroke-dashoffset: 13.6;"/><text class="djs-label" style="font-family: Arial, sans-serif; font-size: 12px;"><tspan x="8.97265625" y="29.5">weitere Angabe </tspan><tspan x="6.478515625" y="43.5">bei KAT I Treffer</tspan><tspan x="32.82421875" y="57.5">prüfen</tspan></text></g><rect x="0" y="0" width="100" height="80" class="djs-hit" style="fill: none; stroke-opacity: 0; stroke: white; stroke-width: 15px;"/><rect x="-6" y="-6" width="112" height="92" class="djs-outline" style="fill: none;"/></g></g><g class="djs-group"><g class="djs-element djs-shape" data-element-id="TextAnnotation_1q8az8a" style="display: block;" transform="matrix(1 0 0 1 -678 97)"><g class="djs-visual"><rect x="0" y="0" width="100" height="30" rx="0" ry="0" style="stroke: none; stroke-width: 2px; fill: none;"/><path d="m 0, 0 m 10,0 l -10,0 l 0,30 l 10,0" style="fill: none; stroke-width: 2px; stroke: black;"/><text class="djs-label" style="font-family: Arial, sans-serif; font-size: 12px;"><tspan x="5" y="18.5">Antrag registriert</tspan></text></g><rect x="0" y="0" width="100" height="30" class="djs-hit" style="fill: none; stroke-opacity: 0; stroke: white; stroke-width: 15px;"/><rect x="-6" y="-6" width="112" height="42" class="djs-outline" style="fill: none;"/></g></g><g class="djs-group"><g class="djs-element djs-shape" data-element-id="EntryCriterion_16pe5b9" style="display: block;" transform="matrix(1 0 0 1 -515 78)"><g class="djs-visual"><polygon points="10,0 20,14 10,28 0,14" style="stroke: black; stroke-width: 2px; fill: white;"/></g><rect x="0" y="0" width="20" height="28" class="djs-hit" style="fill: none; stroke-opacity: 0; stroke: white; stroke-width: 15px;"/><rect x="-6" y="-6" width="32" height="40" class="djs-outline" style="fill: none;"/></g></g></g></g><g class="djs-group"><g class="djs-element djs-shape" data-element-id="PlanItem_06xryvs" style="display: block;" transform="matrix(1 0 0 1 -194 -18)"><g class="djs-visual"><rect x="0" y="0" width="100" height="40" rx="24" ry="24" style="stroke: black; stroke-width: 2px; fill: white;"/><text class="djs-label" style="font-family: Arial, sans-serif; font-size: 12px;"><tspan x="8.310546875" y="16.5">Antragsgestattu</tspan><tspan x="26.654296875" y="30.5">ng erteilt</tspan></text></g><rect x="0" y="0" width="100" height="40" class="djs-hit" style="fill: none; stroke-opacity: 0; stroke: white; stroke-width: 15px;"/><rect x="-6" y="-6" width="112" height="52" class="djs-outline" style="fill: none;"/></g></g><g class="djs-group"><g class="djs-element djs-shape" data-element-id="PlanItem_0br7vvk" style="display: block;" transform="matrix(1 0 0 1 -194 93)"><g class="djs-visual"><rect x="0" y="0" width="100" height="80" rx="10" ry="10" style="stroke: black; stroke-width: 2px; fill: white;"/><text class="djs-label" style="font-family: Arial, sans-serif; font-size: 12px;"><tspan x="18.14453125" y="29.5">Prüfung der </tspan><tspan x="27.658203125" y="43.5">weiteren </tspan><tspan x="26.3134765625" y="57.5">Angaben</tspan></text></g><rect x="0" y="0" width="100" height="80" class="djs-hit" style="fill: none; stroke-opacity: 0; stroke: white; stroke-width: 15px;"/><rect x="-6" y="-6" width="112" height="92" class="djs-outline" style="fill: none;"/></g></g><g class="djs-group"><g class="djs-element djs-shape" data-element-id="PlanItem_0gsqv2s" style="display: block;" transform="matrix(1 0 0 1 -44 -18)"><g class="djs-visual"><rect x="0" y="0" width="100" height="40" rx="24" ry="24" style="stroke: black; stroke-width: 2px; fill: white;"/><text class="djs-label" style="font-family: Arial, sans-serif; font-size: 12px;"><tspan x="24.3154296875" y="16.5">Anhörung </tspan><tspan x="23.6484375" y="30.5">angesetzt</tspan></text></g><rect x="0" y="0" width="100" height="40" class="djs-hit" style="fill: none; stroke-opacity: 0; stroke: white; stroke-width: 15px;"/><rect x="-6" y="-6" width="112" height="52" class="djs-outline" style="fill: none;"/></g></g><g class="djs-group"><g class="djs-element djs-shape" data-element-id="EntryCriterion_1v7531s" style="display: block;" transform="matrix(1 0 0 1 -1556 -138)"><g class="djs-visual"><polygon points="10,0 20,14 10,28 0,14" style="stroke: black; stroke-width: 2px; fill: white;"/></g><rect x="0" y="0" width="20" height="28" class="djs-hit" style="fill: none; stroke-opacity: 0; stroke: white; stroke-width: 15px;"/><rect x="-6" y="-6" width="32" height="40" class="djs-outline" style="fill: none;"/></g></g><g class="djs-group"><g class="djs-element djs-shape" data-element-id="EntryCriterion_1dzva64" style="display: block;" transform="matrix(1 0 0 1 -1293 7)"><g class="djs-visual"><polygon points="10,0 20,14 10,28 0,14" style="stroke: black; stroke-width: 2px; fill: white;"/></g><rect x="0" y="0" width="20" height="28" class="djs-hit" style="fill: none; stroke-opacity: 0; stroke: white; stroke-width: 15px;"/><rect x="-6" y="-6" width="32" height="40" class="djs-outline" style="fill: none;"/></g></g><g class="djs-group"><g class="djs-element djs-shape" data-element-id="EntryCriterion_11tvsx7" style="display: block;" transform="matrix(1 0 0 1 -1293 91)"><g class="djs-visual"><polygon points="10,0 20,14 10,28 0,14" style="stroke: black; stroke-width: 2px; fill: white;"/></g><rect x="0" y="0" width="20" height="28" class="djs-hit" style="fill: none; stroke-opacity: 0; stroke: white; stroke-width: 15px;"/><rect x="-6" y="-6" width="32" height="40" class="djs-outline" style="fill: none;"/></g></g><g class="djs-group"><g class="djs-element djs-shape" data-element-id="EntryCriterion_147bq4o" style="display: block;" transform="matrix(1 0 0 1 -719 90)"><g class="djs-visual"><polygon points="10,0 20,14 10,28 0,14" style="stroke: black; stroke-width: 2px; fill: white;"/></g><rect x="0" y="0" width="20" height="28" class="djs-hit" style="fill: none; stroke-opacity: 0; stroke: white; stroke-width: 15px;"/><rect x="-6" y="-6" width="32" height="40" class="djs-outline" style="fill: none;"/></g></g><g class="djs-group"><g class="djs-element djs-shape" data-element-id="EntryCriterion_06by40o" style="display: block;" transform="matrix(1 0 0 1 -204 -9)"><g class="djs-visual"><polygon points="10,0 20,14 10,28 0,14" style="stroke: black; stroke-width: 2px; fill: white;"/></g><rect x="0" y="0" width="20" height="28" class="djs-hit" style="fill: none; stroke-opacity: 0; stroke: white; stroke-width: 15px;"/><rect x="-6" y="-6" width="32" height="40" class="djs-outline" style="fill: none;"/></g></g><g class="djs-group"><g class="djs-element djs-shape" data-element-id="EntryCriterion_1220odh" style="display: block;" transform="matrix(1 0 0 1 -151 79)"><g class="djs-visual"><polygon points="10,0 20,14 10,28 0,14" style="stroke: black; stroke-width: 2px; fill: white;"/></g><rect x="0" y="0" width="20" height="28" class="djs-hit" style="fill: none; stroke-opacity: 0; stroke: white; stroke-width: 15px;"/><rect x="-6" y="-6" width="32" height="40" class="djs-outline" style="fill: none;"/></g></g><g class="djs-group"><g class="djs-element djs-shape" data-element-id="EntryCriterion_1s91op2" style="display: block;" transform="matrix(1 0 0 1 -54 -14)"><g class="djs-visual"><polygon points="10,0 20,14 10,28 0,14" style="stroke: black; stroke-width: 2px; fill: white;"/></g><rect x="0" y="0" width="20" height="28" class="djs-hit" style="fill: none; stroke-opacity: 0; stroke: white; stroke-width: 15px;"/><rect x="-6" y="-6" width="32" height="40" class="djs-outline" style="fill: none;"/></g></g></g></g><g class="djs-group"><g class="djs-element djs-connection" data-element-id="Association_124lu71_di" style="display: block;"><g class="djs-visual"><polyline points="-1524,117 -1497,117 -1497,109 -1471,109 " style="fill: none; stroke: black; stroke-width: 2px; stroke-dasharray: 0.5, 5; stroke-linecap: round; stroke-linejoin: round;"/></g><polyline points="-1524,117 -1497,117 -1497,109 -1471,109 " class="djs-hit" style="fill: none; stroke-opacity: 0; stroke: white; stroke-width: 15px;"/><rect x="-1530" y="103" width="65" height="20" class="djs-outline" style="fill: none;"/></g></g><g class="djs-group"><g class="djs-element djs-connection" data-element-id="Association_17ys2lt_di" style="display: block;"><g class="djs-visual"><polyline points="-976,85 -919,85 " style="fill: none; stroke: black; stroke-width: 2px; stroke-dasharray: 0.5, 5; stroke-linecap: round; stroke-linejoin: round;"/></g><polyline points="-976,85 -919,85 " class="djs-hit" style="fill: none; stroke-opacity: 0; stroke: white; stroke-width: 15px;"/><rect x="-982" y="79" width="69" height="12" class="djs-outline" style="fill: none;"/></g></g><g class="djs-group"><g class="djs-element djs-connection" data-element-id="Association_1n9buei_di" style="display: block;"><g class="djs-visual"><polyline points="-1283,7 -1283,-13 -1247,-13 -1247,-14 -1211,-14 -1211,6 " style="fill: none; stroke: black; stroke-width: 2px; stroke-dasharray: 0.5, 5; stroke-linecap: round; stroke-linejoin: round;"/></g><polyline points="-1283,7 -1283,-13 -1247,-13 -1247,-14 -1211,-14 -1211,6 " class="djs-hit" style="fill: none; stroke-opacity: 0; stroke: white; stroke-width: 15px;"/><rect x="-1289" y="-20" width="84" height="33" class="djs-outline" style="fill: none;"/></g></g><g class="djs-group"><g class="djs-element djs-connection" data-element-id="Association_1dxljbs_di" style="display: block;"><g class="djs-visual"><polyline points="-1273,105 -1263,105 -1263,97 -1253,97 " style="fill: none; stroke: black; stroke-width: 2px; stroke-dasharray: 0.5, 5; stroke-linecap: round; stroke-linejoin: round;"/></g><polyline points="-1273,105 -1263,105 -1263,97 -1253,97 " class="djs-hit" style="fill: none; stroke-opacity: 0; stroke: white; stroke-width: 15px;"/><rect x="-1279" y="91" width="32" height="20" class="djs-outline" style="fill: none;"/></g></g><g class="djs-group"><g class="djs-element djs-connection" data-element-id="Association_1wd14bl_di" style="display: block;"><g class="djs-visual"><polyline points="-495,92 -453,92 -453,112 -411,112 " style="fill: none; stroke: black; stroke-width: 2px; stroke-dasharray: 0.5, 5; stroke-linecap: round; stroke-linejoin: round;"/></g><polyline points="-495,92 -453,92 -453,112 -411,112 " class="djs-hit" style="fill: none; stroke-opacity: 0; stroke: white; stroke-width: 15px;"/><rect x="-501" y="86" width="96" height="32" class="djs-outline" style="fill: none;"/></g></g><g class="djs-group"><g class="djs-element djs-connection" data-element-id="Association_03rg4bw_di" style="display: block;"><g class="djs-visual"><polyline points="-699,104 -688,104 -688,112 -678,112 " style="fill: none; stroke: black; stroke-width: 2px; stroke-dasharray: 0.5, 5; stroke-linecap: round; stroke-linejoin: round;"/></g><polyline points="-699,104 -688,104 -688,112 -678,112 " class="djs-hit" style="fill: none; stroke-opacity: 0; stroke: white; stroke-width: 15px;"/><rect x="-705" y="98" width="33" height="20" class="djs-outline" style="fill: none;"/></g></g></svg>