<svg xmlns="http://www.w3.org/2000/svg" width="352" height="120.573" viewBox="0 0 352 120.573"><path d="M536.928,474.438c12.966.011,19.7-7.667,19.708-21.114l.01-11.166-12.487-.01-.01,12.006c-.006,6-2.649,8.162-6.851,8.159s-6.841-2.167-6.836-8.171l.039-45.383c0-6,2.648-8.282,6.85-8.278s6.842,2.287,6.837,8.29l-.008,9,12.487.01.007-8.164c.011-13.448-6.706-21.137-19.672-21.148s-19.7,7.668-19.708,21.114l-.037,43.7C517.244,466.737,523.962,474.427,536.928,474.438Z" transform="translate(-517.256 -388.474)"/><path d="M642.074,459.766l16.208.014,2.268,15.25,13.327.011L660.5,390.986l-19.33-.016L627.654,475l12.126.01Zm8.09-53.9,6.327,42.507-12.727-.011Z" transform="translate(-583.727 -389.978)"/><path d="M770.5,415.674l9.795,59.439,12.487.01,9.176-60.263-.052,60.271,12.486.01.071-84.043-18.369-.016-9.055,59.662-9.674-59.678-18.369-.016-.072,84.043,11.526.01Z" transform="translate(-662.769 -390.025)"/><path d="M940.678,476.33c12.966.011,19.7-7.667,19.708-21.114l.054-63.992-12.486-.011-.055,64.833c0,6-2.648,8.163-6.85,8.159s-6.842-2.167-6.837-8.17l.055-64.833-13.206-.011-.055,63.993C921,468.629,927.711,476.319,940.678,476.33Z" transform="translate(-760.366 -390.109)"/><path d="M1054.208,414.475l16.4,60.885,13.567.012.071-84.043-11.766-.01-.043,50.305-13.524-50.317-16.568-.014-.071,84.043,11.886.01Z" transform="translate(-833.385 -390.171)"/><path d="M1212.019,454.71l.036-42.5c.011-13.447-6.465-20.777-19.671-20.788l-20.891-.018-.071,84.043,20.891.018C1205.518,475.474,1212.007,468.157,1212.019,454.71Zm-27.381,8.741.051-60.03,7.444.006c4.2,0,6.721,2.167,6.716,8.17l-.037,43.7c-.005,6-2.529,8.162-6.73,8.159Z" transform="translate(-911.147 -390.237)"/><path d="M1300.206,460.325l16.208.013,2.269,15.25,13.326.011-13.375-84.054-19.33-.016-13.519,84.031,12.126.01Zm8.09-53.9,6.327,42.507-12.727-.01Z" transform="translate(-980.012 -390.313)"/><rect width="351.995" height="22.264" transform="translate(0.005 98.309)"/><rect width="351.995" height="22.264" transform="translate(0.003 98.308)"/></svg>