<?xml version="1.0" encoding="utf-8"?>
<svg version="1.1" id="svg2" width="1134.6" height="1357.1467" viewBox="0 725.937 458.871 631.21" xmlns="http://www.w3.org/2000/svg">
  <g id="g8" transform="matrix(1.3333333,0,0,-1.3333333,0,1357.1467)">
    <g id="g10" transform="scale(0.1)">
      <path d="m 1443.74,994.129 c -80.61,32.171 -174.21,32.351 -254.16,0.461 -79.95,-31.891 -131.76,-88.051 -163.82,-165.16 -26.088,-62.77 -45.096,-142.071 -86.494,-196.629 -52.325,-68.961 -158.563,-92.192 -240.227,-56.27 -81.668,35.93 -133.043,124.93 -126.156,210.34 4.019,49.859 28.379,100.258 73.113,125.598 44.734,25.332 110.547,17.859 140.477,-23.5 29.925,-41.36 -8.578,-82.629 -46.887,-116.219 -21.203,-18.602 -46.609,-47.469 22.391,-63.871 69,-16.41 190.375,68.203 147.875,191.762 -42.497,123.569 -247.77,217.949 -396.274,59.308 -173.75,-185.617 -79.656,-469.82 149.137,-541.668 230.66,-72.441 384.195,39.571 456.965,223.008 72.75,183.441 149.44,235.031 306.72,206.363 l 17.34,146.477" style="fill:#258e5a;fill-opacity:1;fill-rule:nonzero;stroke:none" id="path422"/>
      <path d="m 789.484,415.461 c -37.726,0 -78.523,6.219 -122.347,19.988 -100.52,31.563 -176.891,112.653 -204.301,216.942 -6.141,23.347 -9.563,46.73 -10.348,69.839 29.063,-89.96 98.703,-208.441 234.309,-242.8 30.949,-7.84 60.226,-11.438 87.808,-11.438 142.583,0 239.345,96.227 280.985,199.906 49.69,123.75 132.72,215.981 153.58,231.153 2.98,2.16 4.47,5.347 4.83,9.219 13.62,-15.52 28.08,-30.239 43.36,-44.122 C 1188.81,830.859 1146.33,757.871 1103.8,650.648 1055.15,528 949.992,415.461 789.484,415.461" style="fill:#1f7a4c;fill-opacity:1;fill-rule:nonzero;stroke:none" id="path424"/>
      <path d="m 787.613,356.07 c -44.574,0 -91.015,7.231 -138.457,22.129 -120.308,37.793 -211.66,134.582 -244.355,258.942 -32.192,122.468 0.285,250.808 86.875,343.308 71.465,76.331 162.676,107.261 256.812,87.181 87.575,-18.72 163.825,-81.9 189.731,-157.232 23.437,-68.148 8.683,-140.539 -39.473,-193.648 -38.449,-42.418 -90.906,-63.211 -133.531,-53.109 -50.352,11.968 -66.746,38 -71.641,57.718 -7.656,30.891 9.348,59.153 26.242,73.942 52.375,45.929 51.305,63.711 42.352,76.09 -19.43,26.859 -67.75,34 -101.398,14.968 -32.165,-18.218 -54.383,-57.257 -57.985,-101.898 -5.992,-74.32 39.57,-150.211 108.336,-180.473 69.711,-30.679 161.328,-9.597 204.246,46.953 24.988,32.918 39.676,77.36 53.883,120.329 7.242,21.898 14.727,44.539 23.598,65.878 36.272,87.262 100.462,151.344 185.622,185.302 87.5,34.9 188.25,34.74 276.39,-0.46 l -22.24,-55.72 c -72.93,29.121 -159.63,29.269 -231.92,0.46 -69.8,-27.851 -122.52,-80.621 -152.45,-152.609 -8.01,-19.281 -14.82,-39.871 -22.03,-61.68 -15.75,-47.64 -32.032,-96.882 -63.056,-137.769 C 903.473,536.012 782.137,507.219 686.961,549.07 595.555,589.281 535.004,690.309 542.98,789.281 c 5.25,65.168 38.231,120.981 88.231,149.289 60.137,34.059 142.363,19.391 179.562,-32.011 49.274,-68.09 -23.871,-132.227 -51.406,-156.379 -5.144,-4.512 -8.285,-11.418 -7.554,-14.371 0.5,-2.008 6.585,-8.868 27.277,-13.789 21.09,-5.02 51.973,9.39 75.211,35.031 15.957,17.597 50.554,65.879 27.179,133.84 -19.308,56.14 -77.796,103.589 -145.535,118.059 -72.746,15.54 -143.949,-9.13 -200.468,-69.501 C 461.988,860.941 435.508,756.32 462.836,652.391 490.246,548.102 566.617,467.012 667.137,435.449 897.426,363.102 1043.71,499.18 1103.8,650.648 c 70.23,177.071 140.27,260.754 327.98,226.524 l -10.75,-59.031 C 1283.05,843.25 1229.29,804.301 1159.57,628.52 1090.38,454.102 951.695,356.07 787.613,356.07" style="fill:#1b6d42;fill-opacity:1;fill-rule:nonzero;stroke:none" id="path426"/>
      <path d="m 2062.17,745.859 c 0,0 -12.98,-160.121 25.96,-194.738 63.98,-56.871 432.76,-168.769 484.68,-255.32 51.93,-86.551 17.31,-173.102 -34.62,-190.403 -51.93,-17.2964 -86.55,8.602 -86.55,8.602 0,0 -17.31,-73.5 -103.86,-69.1992 -86.55,4.3008 -376.49,246.6682 -411.11,363.5082 -30.95,104.48 0,307.261 0,307.261 l 125.5,30.289" style="fill:#48bd86;fill-opacity:1;fill-rule:nonzero;stroke:none" id="path428"/>
      <path d="m 2399.78,53.5 c 20.52,9.1016 33.38,23.8008 41.15,36.3984 -5.95,-14.5976 -17.82,-29.2968 -41.15,-36.3984 m 160.44,64.199 c 9.91,8 18.48,18.903 24.99,31.801 -3.79,-11.102 -10.19,-21 -20.14,-28.398 -1.61,-1.204 -3.23,-2.403 -4.85,-3.403 m -357.86,3.102 c -71.58,46.597 -139.47,102.859 -162.89,126.281 -43.2,43.199 -126,169.199 -126,230.398 0,6 3.6,15.602 3.6,21.598 v 198.313 c 5.84,0.668 11.62,1.379 17.38,2.129 -6.5,-49.938 -23.48,-204.461 2.22,-291.211 22.54,-76.067 153.29,-205.329 265.69,-287.508" style="fill:#7cbb9c;fill-opacity:1;fill-rule:nonzero;stroke:none" id="path430"/>
      <path d="m 2367.07,49.1016 c -41.2,0 -104.27,32.3984 -164.71,71.6994 -112.4,82.179 -243.15,211.441 -265.69,287.508 -25.7,86.75 -8.72,241.273 -2.22,291.211 41.11,5.378 80.18,12.921 117.17,22.601 3.5,-38.871 0.61,-87.48 -1.35,-125.84 0,0 -90,-43.199 -50.4,-147.601 39.6,-104.399 275.82,-304.981 327.6,-313.18 4.02,-0.699 7.88,-1 11.55,-1 58.91,0 74.85,76.578 74.85,76.578 0,0 39.87,-18.426 76.89,-18.426 12.43,0 24.53,2.078 34.71,7.629 39.6,21.598 36,86.399 36,86.399 0,0 41.88,-83.77 23.74,-137.18 -6.51,-12.898 -15.08,-23.801 -24.99,-31.801 -15.71,-10.398 -31.55,-14.097 -46.21,-14.097 -37.75,0 -67.74,24.699 -67.74,24.699 0,0 2.59,-19 -5.34,-38.4026 -7.77,-12.5976 -20.63,-27.2968 -41.15,-36.3984 -9.06,-2.8008 -19.85,-4.3984 -32.71,-4.3984" style="fill:#33a16c;fill-opacity:1;fill-rule:nonzero;stroke:none" id="path432"/>
      <path d="m 2355.01,14.6016 c -2.86,0 -5.75,0.0976 -8.72,0.1992 -98.38,5 -399.71,254.4692 -438.38,384.9882 -32.49,109.641 -2.2,311.75 -0.9,320.313 l 59.32,-9.063 c -0.3,-1.961 -29.57,-197.41 -0.89,-294.199 32.89,-111.039 316.13,-338.6408 383.84,-342.0392 57.51,-3.1016 71.08,38.1992 73.24,46.3982 2.53,9.699 9.75,17.703 19.19,21 9.44,3.301 19.94,1.801 27.94,-4.199 0.54,-0.301 23.67,-15.898 59.06,-4.199 13.91,4.699 26.46,18.898 33.55,38.097 12.1,32.692 6.57,72.231 -15.17,108.473 -25.88,43.129 -175.32,106.277 -284.45,152.367 -102.21,43.203 -166.28,70.934 -194.44,95.961 -46.51,41.352 -39.26,178.52 -35.93,219.582 l 59.8,-4.84 c -6.12,-76.031 1.5,-157.019 15.99,-169.902 22.19,-19.719 101.37,-53.168 177.93,-85.519 161.96,-68.43 279.18,-121.168 312.55,-176.79 31.15,-51.921 38.44,-110.289 19.99,-160.128 C 2604.99,114.5 2579.16,87.3984 2547.68,76.8984 2516.37,66.5 2488.24,68.3984 2466.86,74.5 2448.74,45.1016 2413.58,14.6016 2355.01,14.6016" style="fill:#1b6d42;fill-opacity:1;fill-rule:nonzero;stroke:none" id="path434"/>
      <path d="m 2448.59,80.5 h -1.06 c -16.57,0.6016 -29.52,14.5 -28.94,31.102 1.28,37 -18.38,80.867 -48.92,109.179 -12.16,11.258 -12.88,30.239 -1.62,42.387 11.27,12.152 30.25,12.863 42.4,1.613 43.25,-40.082 69.98,-101.082 68.1,-155.281 -0.56,-16.1992 -13.88,-29 -29.96,-29" style="fill:#1b6d42;fill-opacity:1;fill-rule:nonzero;stroke:none" id="path436"/>
      <path d="m 1512.2,745.859 c 0,0 12.99,-160.121 -25.96,-194.738 -63.98,-56.871 -432.75,-168.769 -484.68,-255.32 -51.931,-86.551 -17.31,-173.102 34.62,-190.403 51.93,-17.2964 86.55,8.602 86.55,8.602 0,0 17.31,-73.5 103.86,-69.1992 86.55,4.3008 376.49,246.6682 411.11,363.5082 30.96,104.48 0,307.261 0,307.261 l -125.5,30.289" style="fill:#48bd86;fill-opacity:1;fill-rule:nonzero;stroke:none" id="path438"/>
      <path d="m 1174.59,53.5 c -23.32,7.1016 -35.19,21.8008 -41.15,36.3984 7.78,-12.5976 20.63,-27.2968 41.15,-36.3984 m -160.42,64.199 c -1.63,1 -3.25,2.199 -4.87,3.403 -9.952,7.398 -16.355,17.296 -20.144,28.398 6.512,-12.898 15.094,-23.801 25.014,-31.801 m 357.84,3.102 c 112.4,82.191 243.15,211.441 265.69,287.508 25.91,87.429 8.45,243.711 2.07,292.371 5.8,-0.801 11.65,-1.571 17.53,-2.289 V 499.078 c 0,-5.996 3.6,-15.598 3.6,-21.598 0,-61.199 -82.8,-187.199 -126,-230.398 -23.42,-23.422 -91.3,-79.684 -162.89,-126.281" style="fill:#7cbb9c;fill-opacity:1;fill-rule:nonzero;stroke:none" id="path440"/>
      <path d="m 1207.3,49.1016 c -12.85,0 -23.65,1.5976 -32.71,4.3984 -20.52,9.1016 -33.37,23.8008 -41.15,36.3984 -7.93,19.4026 -5.34,38.4026 -5.34,38.4026 0,0 -29.99,-24.699 -67.74,-24.699 -14.66,0 -30.49,3.699 -46.19,14.097 -9.92,8 -18.502,18.903 -25.014,31.801 -18.129,53.422 23.744,137.18 23.744,137.18 0,0 -3.6,-64.801 36,-86.399 10.18,-5.551 22.28,-7.629 34.71,-7.629 37.03,0.008 76.89,18.426 76.89,18.426 0,0 15.94,-76.578 74.85,-76.578 3.68,0 7.53,0.301 11.55,1 51.78,8.199 288,208.781 327.6,313.18 39.6,104.402 -50.4,147.601 -50.4,147.601 -1.99,39.059 -4.95,88.758 -1.15,127.961 36.84,-10.012 75.8,-17.871 116.82,-23.562 6.38,-48.66 23.84,-204.942 -2.07,-292.371 C 1615.16,332.242 1484.41,202.992 1372.01,120.801 1311.57,81.5 1248.5,49.1016 1207.3,49.1016" style="fill:#33a16c;fill-opacity:1;fill-rule:nonzero;stroke:none" id="path442"/>
      <path d="m 2345.89,2146.07 -554.67,-7.52 -554.67,7.52 c 0,0 -596.261,-1410.64 554.67,-1426.441 1150.94,15.801 554.67,1426.441 554.67,1426.441" style="fill:#48bd86;fill-opacity:1;fill-rule:nonzero;stroke:none" id="path444"/>
      <path d="m 1791.63,749.629 c -273.77,3.762 -467.24,89.312 -575.04,254.291 -95.58,146.28 -114.25,338.3 -99.72,522.46 28.23,-122.64 96.15,-351.83 225.23,-449.43 115.36,-87.22 267.66,-124.411 418.94,-124.411 168.03,0 334.8,45.871 448.31,120.011 164.02,107.11 230.44,361.75 253.51,483.37 19.22,-200.53 2.42,-422.02 -116.51,-579.779 C 2235.71,829.379 2048.81,753.16 1791.63,749.629" style="fill:#33a16c;fill-opacity:1;fill-rule:nonzero;stroke:none" id="path446"/>
      <path d="m 1791.63,689.629 c -295.83,4.051 -505.95,98.793 -625.33,281.57 -275.448,421.731 29.5,1155.521 42.62,1186.551 4.7,11.11 15.59,18.32 27.63,18.32 h 0.41 l 554.67,-7.52 465.38,7.52 0.97,-60 -466.27,-7.52 -534.96,7.25 c -45.4,-116.63 -275.078,-752.36 -40.16,-1111.88 107.8,-164.979 301.27,-250.529 575.04,-254.291 257.18,3.531 444.08,79.75 554.72,226.512 192.96,255.969 117.08,679.699 54.68,909.489 l 57.9,15.73 c 79.74,-293.65 133.25,-698.78 -64.67,-961.329 C 2271.88,777.68 2069.13,693.441 1791.63,689.629" style="fill:#1b6d42;fill-opacity:1;fill-rule:nonzero;stroke:none" id="path448"/>
      <path d="m 1148.69,1813.08 c -2.33,0 -4.68,0.27 -7.03,0.83 -16.11,3.87 -26.04,20.06 -22.17,36.18 3.41,14.24 8.79,32.87 13.99,50.89 4.55,15.81 9.26,32.13 12.17,43.92 3.98,16.1 20.24,25.9 36.33,21.93 16.08,-3.98 25.9,-20.24 21.92,-36.32 -3.19,-12.91 -7.84,-29.06 -12.77,-46.15 -5.01,-17.38 -10.2,-35.36 -13.3,-48.28 -3.3,-13.76 -15.59,-23 -29.14,-23" style="fill:#1b6d42;fill-opacity:1;fill-rule:nonzero;stroke:none" id="path450"/>
      <path d="m 2385.78,1692.01 c 0,0 258.85,-157.93 273.1,-221.14 14.24,-63.2 -244.34,-272.69 -185,-368.02 70,-112.471 534.8,177.76 520.98,383.63 -16.36,243.8 -657.16,521 -657.16,521 l 48.08,-315.47" style="fill:#48bd86;fill-opacity:1;fill-rule:nonzero;stroke:none" id="path452"/>
      <path d="m 2531.95,1107.94 c -17.51,0 -28.51,4.19 -32.6,10.76 -17.52,28.15 19.02,87.9 59.88,143.23 3.41,-18.28 15.67,-44.7 58.04,-44.7 11.78,0 25.88,2.04 42.77,6.87 100.47,28.7 253.47,152.63 305.77,224.54 -15.69,-116.45 -204.49,-266.04 -344.49,-319.94 -38.57,-14.85 -68.57,-20.76 -89.37,-20.76" style="fill:#33a16c;fill-opacity:1;fill-rule:nonzero;stroke:none" id="path454"/>
      <path d="m 2629.61,1464.29 h 0.1 -0.1 m -97.09,-416.22 c -49.94,-0.02 -73.37,21.66 -84.11,38.93 -46.25,74.3 35.75,178.05 108.1,269.58 28.72,36.33 71.99,91.08 72.92,108.45 -9.18,36.18 -101.83,115.48 -165.2,160.6 -13.49,9.61 -16.65,28.34 -7.04,41.84 9.6,13.5 28.32,16.65 41.83,7.05 28.79,-20.48 173.16,-126.24 189.12,-197.05 8.55,-37.93 -24.83,-82.53 -84.56,-158.1 -51.05,-64.58 -128.19,-162.17 -104.23,-200.67 8.95,-14.37 50.93,-17.35 121.97,10 153.45,59.07 365.52,233.11 344.02,352.46 -48.68,270.16 -589.13,467.32 -594.58,469.29 -15.59,5.6 -23.69,22.78 -18.09,38.36 5.6,15.6 22.81,23.69 38.37,18.1 23.6,-8.47 578.54,-210.95 633.35,-515.11 28.41,-157.72 -203.06,-350.4 -381.52,-419.1 -46.56,-17.93 -82.56,-24.63 -110.35,-24.63" style="fill:#1b6d42;fill-opacity:1;fill-rule:nonzero;stroke:none" id="path456"/>
      <path d="m 1801.35,1665.48 c -297.23,0 -486.34,146.73 -575.32,238.14 167.25,-49.05 358.34,-84.65 544.72,-84.65 78.31,0 155.84,6.29 230.39,20.5 116.81,22.27 233.17,65.31 343.84,120.23 l 12.45,-81.64 c -93.25,-90.79 -271.38,-212.58 -556.08,-212.58" style="fill:#2d8d5d;fill-opacity:1;fill-rule:nonzero;stroke:none" id="path458"/>
      <path d="m 2357.43,1878.06 -12.45,81.64 c 3.04,1.51 6.08,3.03 9.11,4.55 7.55,-16.04 17.22,-39.89 25.98,-63.07 -6.9,-7.39 -14.45,-15.15 -22.64,-23.12" style="fill:#2d8d5d;fill-opacity:1;fill-rule:nonzero;stroke:none" id="path460"/>
      <path d="m 2423.88,1953.81 c -3.04,7.5 -6.03,14.66 -8.86,21.21 h 23.25 c 0,0 -4.68,-7.92 -14.39,-21.21" style="fill:#1b6d42;fill-opacity:1;fill-rule:nonzero;stroke:none" id="path462"/>
      <path d="m 1219.37,14.6016 c -58.58,0 -93.74,30.5 -111.86,59.8984 -21.35,-6.1016 -49.5,-8 -80.82,2.3984 -31.483,10.5 -57.307,37.6016 -70.85,74.2036 -18.445,49.839 -11.156,108.207 20,160.136 33.37,55.614 150.58,108.352 312.54,176.782 76.56,32.351 155.74,65.8 177.93,85.519 14.49,12.883 22.12,93.871 15.99,169.902 l 59.81,4.84 c 3.33,-41.062 10.57,-178.242 -35.94,-219.582 -28.15,-25.027 -92.23,-52.758 -194.44,-95.961 -109.12,-46.09 -258.56,-109.238 -284.44,-152.367 -21.75,-36.242 -27.27,-75.769 -15.18,-108.473 7.1,-19.199 19.64,-33.398 33.56,-38.097 35.38,-11.801 58.51,3.898 59.48,4.5 8.1,6.097 18.51,7.5 28.02,4.097 9.52,-3.496 16.44,-11.597 18.76,-21.5 2.08,-7.898 15.92,-49.0972 73.16,-46.0972 67.72,3.3984 350.95,231.0002 383.85,342.0392 28.67,96.789 -0.6,292.238 -0.9,294.199 l 59.32,9.063 c 1.3,-8.563 31.59,-210.672 -0.89,-320.313 C 1627.79,269.27 1326.46,19.8008 1228.09,14.8008 c -2.97,-0.1016 -5.87,-0.1992 -8.72,-0.1992" style="fill:#1b6d42;fill-opacity:1;fill-rule:nonzero;stroke:none" id="path464"/>
      <path d="m 1125.79,80.5 c -16.09,0 -29.4,12.8008 -29.96,29 -1.9,54.199 24.84,115.191 68.1,155.281 12.15,11.258 31.13,10.539 42.4,-1.613 11.26,-12.148 10.53,-31.129 -1.62,-42.387 -30.55,-28.312 -50.21,-72.179 -48.92,-109.179 C 1156.36,95 1143.41,81.1016 1126.85,80.5 h -1.06" style="fill:#1b6d42;fill-opacity:1;fill-rule:nonzero;stroke:none" id="path466"/>
      <path d="m 2431.28,1813.08 c -13.56,0 -25.85,9.25 -29.15,23.01 -5.33,22.24 -33.33,97.88 -49.55,131.34 -7.23,14.91 -1.01,32.85 13.91,40.08 14.89,7.23 32.85,1 40.08,-13.91 16.94,-34.94 47.17,-115.43 53.91,-143.52 3.86,-16.12 -6.07,-32.31 -22.18,-36.17 -2.36,-0.56 -4.71,-0.83 -7.02,-0.83" style="fill:#1b6d42;fill-opacity:1;fill-rule:nonzero;stroke:none" id="path468"/>
      <path d="m 2961.15,3797.72 c -193.36,333.76 -925.83,283.91 -925.83,283.91 0,0 -336.74,445.94 -534.18,459.62 l -0.77,4.07 c -4.84,-0.92 -9.67,-2.3 -14.48,-3.93 -5.07,-0.25 -10.06,-0.75 -14.91,-1.67 l 0.79,-4.07 c -178.55,-85.38 -327.55,-623.95 -327.55,-623.95 0,0 -699.407,-223.2 -756.376,-604.7 C 330.867,2925.49 574,2653.6 574,2653.6 c 0,0 54.621,-422.98 298.844,-555.75 240.746,-130.89 724.716,-285.1 1111.976,-218.23 l 0.06,-0.32 c 2.78,0.53 5.56,1.2 8.33,1.76 2.78,0.5 5.61,0.9 8.38,1.43 l -0.06,0.32 c 384.7,80.34 777.95,401.83 953.64,612.13 178.22,213.33 73.34,626.73 73.34,626.73 0,0 126.02,342.28 -67.36,676.05" style="fill:#48bd86;fill-opacity:1;fill-rule:nonzero;stroke:none" id="path470"/>
      <path d="m 1522.89,3258.89 c -14.12,0 -26.7,10.01 -29.44,24.4 -79.04,414.5 -306.84,541.49 -350.07,562.12 10.94,2.33 19.83,10.64 22.74,21.7 2.6,9.85 5.32,19.9 8.17,30.16 65,-31.74 296.11,-172.76 378.1,-602.75 3.11,-16.27 -7.57,-31.98 -23.85,-35.09 -1.9,-0.36 -3.79,-0.54 -5.65,-0.54" style="fill:#33a16c;fill-opacity:1;fill-rule:nonzero;stroke:none" id="path472"/>
      <path d="m 1909.09,3332.55 c -14.12,0 -26.7,10.01 -29.44,24.39 -83.18,436.22 85.78,652.38 131.81,701.81 6.85,-9.04 13.49,-17.94 19.91,-26.65 5.76,-7.82 14.79,-12.22 24.15,-12.22 0.65,0 1.31,0.02 1.97,0.07 -32,-34.3 -198.15,-236.2 -118.9,-651.78 3.11,-16.27 -7.57,-31.98 -23.85,-35.09 -1.9,-0.36 -3.78,-0.53 -5.65,-0.53" style="fill:#33a16c;fill-opacity:1;fill-rule:nonzero;stroke:none" id="path474"/>
      <path d="m 1774.31,1879.33 c -343.07,0.02 -710.21,126.81 -890.923,225.06 -47.918,26.06 -88.578,67.58 -122.899,116.94 140.215,-58.68 363.862,-94.42 621.172,-94.42 171.45,0 357.88,15.88 544.37,51.45 466.97,89.05 885.68,292.41 1086.99,467.83 -13.84,-56.61 -36.07,-108.35 -70.06,-149.04 -160.21,-191.78 -560.62,-523.91 -953.06,-598.73 -69.39,-13.24 -141.91,-19.09 -215.59,-19.09" style="fill:#33a16c;fill-opacity:1;fill-rule:nonzero;stroke:none" id="path476"/>
      <path d="m 1541,3878.73 -204.86,451.31 c 25.65,50.23 52.31,94.14 79.1,127.31 L 1541,3878.73" style="fill:#33a16c;fill-opacity:1;fill-rule:nonzero;stroke:none" id="path478"/>
      <path d="m 1663.35,3902.06 -97.99,596.42 c 37.39,-18.46 79.37,-48.53 123.16,-85.86 l -25.17,-510.56" style="fill:#33a16c;fill-opacity:1;fill-rule:nonzero;stroke:none" id="path480"/>
      <path d="m 1474.19,4516.93 c -14.12,0 -26.7,10.02 -29.44,24.4 -3.09,16.28 7.59,31.98 23.86,35.08 h 0.01 l 20.47,3.9 c 16.27,3.12 31.99,-7.59 35.08,-23.86 3.1,-16.28 -7.58,-31.98 -23.85,-35.09 h -0.01 -0.05 c -2.35,-0.45 -4.68,-1.08 -7.01,-1.78 -2.01,-0.61 -4.08,-1 -6.17,-1.17 -2.45,-0.21 -4.88,-0.49 -7.24,-0.94 v 0 c -1.9,-0.36 -3.79,-0.54 -5.65,-0.54" style="fill:#1b6d42;fill-opacity:1;fill-rule:nonzero;stroke:none" id="path482"/>
      <path d="m 1490.24,4518.6 c -122.85,-42.42 -260.86,-411.65 -324.12,-651.49 -3.29,-12.49 -14.2,-21.47 -27.08,-22.3 -6.09,-0.39 -619.884,-90.79 -710.669,-525.6 -76.226,-365.07 151.992,-592.97 154.305,-595.23 4.836,-4.72 7.976,-10.97 8.84,-17.67 0.617,-4.77 64.035,-478.05 291.871,-601.92 180.713,-98.25 547.853,-225.04 890.923,-225.06 73.68,0 146.2,5.85 215.59,19.09 392.44,74.82 792.85,406.95 953.06,598.73 166.26,199.01 51.06,662.42 49.88,667.08 -1.67,6.58 -1.07,13.54 1.73,19.73 1.3,2.91 129.63,298.79 -75.59,610.19 v 0.01 c -222.51,337.62 -778.09,251.81 -854.23,227.19 -12.29,-3.99 -25.73,0.36 -33.38,10.75 -147.1,199.72 -411.2,492.59 -541.13,486.5 m 280.51,-2699.63 c -353.11,-0.01 -723.01,127.78 -916.027,232.71 -237.86,129.31 -310.567,563.09 -321.325,636.92 -42.39,45.1 -239.816,278.61 -163.757,642.87 39.718,190.23 179.136,348.86 403.183,458.76 146.114,71.67 285.516,102.54 340.476,111.55 38.02,139.39 181.43,620.48 362.6,675.24 2.01,0.61 4.08,1 6.18,1.17 188.63,16.17 498.99,-378.79 585.63,-494.4 54.43,11.86 195.37,34.46 357.64,21.58 248.77,-19.74 436.79,-115.94 543.72,-278.2 204.77,-310.71 107.14,-600.48 84.32,-658.01 17.16,-72.62 109.19,-502.71 -64.39,-710.49 -172.09,-206 -577.19,-540.89 -987.86,-619.2 -74.55,-14.21 -152.08,-20.5 -230.39,-20.5" style="fill:#1b6d42;fill-opacity:1;fill-rule:nonzero;stroke:none" id="path484"/>
      <path d="m 1946.36,2860.79 c 30.89,-8.72 99.35,92 61.08,113.93 -38.28,21.92 -107.12,-100.93 -61.08,-113.93" style="fill:#258e5a;fill-opacity:1;fill-rule:nonzero;stroke:none" id="path486"/>
      <path d="m 1676.22,2809.27 c -25.51,-19.47 -126.24,48.99 -98.72,83.46 27.52,34.47 136.74,-54.42 98.72,-83.46" style="fill:#258e5a;fill-opacity:1;fill-rule:nonzero;stroke:none" id="path488"/>
      <path d="m 1493.35,2985.35 c -11.17,0 -21.9,6.27 -27.06,17.01 -7.18,14.93 -0.9,32.84 14.03,40.02 4.96,2.39 123.34,58.83 274.71,87.71 92.34,17.6 177.07,21.15 230.33,21.15 34.04,0 55.22,-1.45 57.37,-1.6 16.52,-1.19 28.95,-15.53 27.77,-32.05 -1.12,-15.84 -14.3,-27.87 -29.98,-27.87 -0.68,0 -1.37,0.03 -2.06,0.07 -0.5,0.03 -20.01,1.35 -52.08,1.35 -50.58,0 -132.4,-3.27 -220.11,-20 -143.33,-27.33 -258.81,-82.28 -259.95,-82.83 -4.19,-2.01 -8.61,-2.96 -12.97,-2.96" style="fill:#33a16c;fill-opacity:1;fill-rule:nonzero;stroke:none" id="path490"/>
      <path d="m 1365.49,3247.52 c 55.25,-289.72 -119.35,-556.24 -424.021,-614.34 -304.672,-58.1 -576.711,141.45 -631.961,431.17 -55.246,289.72 124.207,537.26 428.879,595.36 304.673,58.1 571.853,-122.47 627.103,-412.19" style="fill:#258e5a;fill-opacity:1;fill-rule:nonzero;stroke:none" id="path492"/>
      <path d="m 835.043,2593.03 c -273.738,0 -511.242,192.05 -565.227,475.14 -25.394,133.17 -5.679,261.52 57.024,371.19 61.879,108.25 161.113,190.78 286.98,238.7 15.485,5.89 32.813,-1.87 38.711,-17.36 5.895,-15.49 -1.879,-32.81 -17.363,-38.71 -232.137,-88.38 -352.414,-301.36 -306.414,-542.59 54.949,-288.13 321.687,-471.27 607.195,-416.74 115.201,21.97 223.411,75.81 296.891,147.73 11.84,11.57 30.83,11.39 42.43,-0.46 11.59,-11.85 11.38,-30.84 -0.46,-42.43 -81.71,-79.95 -201.12,-139.65 -327.619,-163.78 -37.785,-7.2 -75.316,-10.69 -112.148,-10.69" style="fill:#1b6d42;fill-opacity:1;fill-rule:nonzero;stroke:none" id="path494"/>
      <path d="m 1295.08,3238.78 c 45.13,-236.68 -110.14,-465.13 -346.822,-510.27 -236.676,-45.13 -465.129,110.15 -510.262,346.82 -45.133,236.68 110.145,465.13 346.82,510.27 236.674,45.13 465.134,-110.15 510.264,-346.82" style="fill:#ffffff;fill-opacity:1;fill-rule:nonzero;stroke:none" id="path496"/>
      <path d="m 2076.41,3383.09 c 55.24,-289.72 315.67,-473.29 620.34,-415.19 304.67,58.1 484.19,343.76 428.94,633.48 -55.25,289.72 -313.21,453.85 -617.88,395.75 -304.67,-58.1 -486.65,-324.32 -431.4,-614.04" style="fill:#258e5a;fill-opacity:1;fill-rule:nonzero;stroke:none" id="path498"/>
      <path d="m 2571.23,2926.06 c -83.42,0 -164.6,14.97 -233.86,44.07 -15.27,6.42 -22.46,24.01 -16.03,39.28 6.4,15.27 23.99,22.45 39.27,16.04 94.78,-39.83 215.21,-50.07 330.42,-28.1 285.54,54.45 466.17,322.81 411.22,610.96 -46,241.21 -236.6,394.95 -484.59,391.73 h -0.4 c -16.38,0 -29.77,13.17 -29.98,29.61 -0.22,16.56 13.04,30.17 29.6,30.39 134.53,1.9 257.32,-38.47 354.69,-116.34 98.65,-78.9 164.22,-191 189.62,-324.16 61.25,-321.18 -140.33,-620.37 -458.92,-681.13 -43.37,-8.27 -87.51,-12.35 -131.04,-12.35" style="fill:#1b6d42;fill-opacity:1;fill-rule:nonzero;stroke:none" id="path500"/>
      <path d="m 2145.09,3400.87 c 45.13,-236.68 273.59,-391.96 510.26,-346.82 236.68,45.13 391.96,273.58 346.82,510.26 -45.13,236.68 -273.58,391.96 -510.26,346.82 -236.68,-45.13 -391.95,-273.58 -346.82,-510.26" style="fill:#ffffff;fill-opacity:1;fill-rule:nonzero;stroke:none" id="path502"/>
      <path d="m 1110.87,3326.83 c 25.06,-131.4 -61.14,-258.23 -192.542,-283.28 -131.394,-25.06 -258.223,61.15 -283.277,192.54 -25.059,131.4 61.148,258.23 192.543,283.28 131.394,25.06 258.226,-61.15 283.276,-192.54" style="fill:#cc9211;fill-opacity:1;fill-rule:nonzero;stroke:none" id="path504"/>
      <path d="m 1017.8,3309.08 c 15.26,-79.99 -37.226,-157.21 -117.218,-172.46 -79.992,-15.26 -157.207,37.23 -172.461,117.22 -15.254,79.99 37.227,157.21 117.219,172.46 79.996,15.26 157.21,-37.23 172.46,-117.22" style="fill:#233338;fill-opacity:1;fill-rule:nonzero;stroke:none" id="path506"/>
      <path d="m 901.336,3381.71 c -5.957,31.25 16.125,61.72 49.328,68.05 33.199,6.33 64.946,-13.87 70.906,-45.12 5.96,-31.25 -16.13,-61.71 -49.328,-68.05 -33.199,-6.33 -64.945,13.87 -70.906,45.12" style="fill:#ffffff;fill-opacity:1;fill-rule:nonzero;stroke:none" id="path508"/>
      <path d="m 2283.97,3550.53 c 25.05,-131.39 151.88,-217.6 283.28,-192.54 131.39,25.06 217.6,151.88 192.54,283.28 -25.06,131.39 -151.89,217.6 -283.28,192.54 -131.4,-25.05 -217.6,-151.88 -192.54,-283.28" style="fill:#cc9211;fill-opacity:1;fill-rule:nonzero;stroke:none" id="path510"/>
      <path d="m 2377.04,3568.28 c 15.25,-79.99 92.46,-132.47 172.46,-117.22 79.99,15.25 132.47,92.47 117.22,172.46 -15.26,80 -92.47,132.48 -172.46,117.22 -80,-15.25 -132.48,-92.47 -117.22,-172.46" style="fill:#233338;fill-opacity:1;fill-rule:nonzero;stroke:none" id="path512"/>
      <path d="m 2458.6,3678.68 c -5.96,31.24 -37.7,51.44 -70.91,45.11 -33.2,-6.33 -55.28,-36.79 -49.32,-68.04 5.96,-31.25 37.7,-51.45 70.9,-45.12 33.21,6.33 55.29,36.8 49.33,68.05" style="fill:#ffffff;fill-opacity:1;fill-rule:nonzero;stroke:none" id="path514"/>
      <path d="m 692.832,4044.74 c -32.062,-63.25 330.358,-157.04 328.798,-85.06 -1.56,71.98 -285.978,169.52 -328.798,85.06" style="fill:#258e5a;fill-opacity:1;fill-rule:nonzero;stroke:none" id="path516"/>
      <path d="m 719.602,4031.19 -0.008,-0.02 z m 3.925,4.87 c 11.653,-11.41 50.723,-34.56 125.852,-54.49 71.437,-18.96 120.281,-19.96 139.207,-15.97 -15.512,21.84 -87.012,63.46 -172.695,77.84 -49.809,8.35 -80.762,2.78 -92.364,-7.38 z m 241.227,-131.84 c -92.016,-0.01 -242.832,44.87 -286.813,92.88 -24.918,27.2 -16.601,51.85 -11.863,61.2 23.5,46.39 90.668,60.75 184.262,39.46 80.105,-18.23 199.82,-69.87 201.29,-137.43 0.22,-10.3 -2.75,-35.65 -35,-48.59 -12.91,-5.18 -30.86,-7.52 -51.876,-7.52" style="fill:#1b6d42;fill-opacity:1;fill-rule:nonzero;stroke:none" id="path518"/>
      <path d="m 2414.36,4370.34 c 52.28,-47.91 -253.9,-263.31 -277.79,-195.39 -23.89,67.92 207.97,259.37 277.79,195.39" style="fill:#258e5a;fill-opacity:1;fill-rule:nonzero;stroke:none" id="path520"/>
      <path d="m 2394.07,4348.24 0.02,-0.02 z m -17.58,5.05 c -16.8,0 -43.02,-7.83 -76.9,-27.52 -74.99,-43.57 -127.19,-107.55 -134.11,-133.62 19.15,2.95 64.48,21.09 124.62,63.95 63.28,45.11 91.69,80.52 98.58,95.31 -3.24,1.22 -7.32,1.88 -12.19,1.88 z m -216.91,-221.47 -1.45,0.02 c -34.74,0.76 -46.44,23.44 -49.86,33.16 -22.42,63.75 71.43,154.23 139.97,199.49 80.11,52.89 148.05,63.11 186.39,27.97 7.72,-7.07 24.19,-27.23 10.44,-61.46 -29.61,-73.75 -209.82,-199.18 -285.49,-199.18" style="fill:#1b6d42;fill-opacity:1;fill-rule:nonzero;stroke:none" id="path522"/>
      <path d="m 1114.4,2214.2 c -16.6,0 -32.09,1.35 -46.27,4.23 -162.114,32.95 -175.661,247.03 -85.04,248.64 0.57,0.01 1.133,0.01 1.687,0.01 67.983,0 34.613,-74.89 49.913,-106.19 0,0 40.33,-35.84 76.94,-41.76 5.75,-0.93 12.64,-1.47 20.92,-1.47 43.03,0 123.44,14.74 273.84,67.08 162.94,56.72 327.23,102.87 422.26,128.23 l -1.02,5.4 c 0,0 15.31,2.1 42.12,5.42 26.14,6.78 41.15,10.46 41.15,10.46 l 1.03,-5.4 c 97.7,11.39 267.44,28.94 439.82,36.17 189.74,7.97 267.24,29.02 298.22,47.46 31.86,18.98 56.17,67.15 56.17,67.15 2.73,35.01 -56.84,93.03 8.91,117.71 6.05,2.27 12,3.34 17.79,3.34 75.45,0 123.36,-181.97 -5.36,-265.82 -159.14,-103.67 -627.46,-43.64 -845.07,-85.14 -201.04,-38.33 -566.71,-235.53 -768.01,-235.52" style="fill:#33a16c;fill-opacity:1;fill-rule:nonzero;stroke:none" id="path524"/>
      <path d="m 1141.57,2292.4 c -58.85,0 -107.18,15.22 -136.12,43.63 -22.196,21.8 -32.321,49.95 -29.274,81.44 1.59,16.49 16.238,28.44 32.744,26.97 16.49,-1.6 28.57,-16.26 26.98,-32.75 -1.3,-13.37 2.38,-23.81 11.58,-32.83 22.1,-21.71 72.11,-31.04 130.52,-24.28 80,9.23 199.33,49.73 325.67,92.61 122.24,41.51 248.64,84.42 356.18,104.93 16.27,3.07 31.98,-7.57 35.08,-23.85 3.11,-16.28 -7.57,-31.99 -23.84,-35.1 -103.44,-19.73 -227.84,-61.95 -348.13,-102.79 -129.46,-43.94 -251.73,-85.45 -338.09,-95.41 -14.94,-1.72 -29.41,-2.57 -43.3,-2.57" style="fill:#1b6d42;fill-opacity:1;fill-rule:nonzero;stroke:none" id="path526"/>
      <path d="m 1878.41,2495.11 c -14.12,0 -26.7,10 -29.44,24.38 -3.1,16.28 7.58,31.99 23.85,35.1 107.54,20.51 240.86,27.13 369.8,33.52 133.25,6.62 259.11,12.86 336.89,33.73 56.78,15.23 99.86,42.29 112.43,70.6 5.23,11.79 4.81,22.84 -1.31,34.8 -7.55,14.75 -1.72,32.83 13.03,40.37 14.74,7.57 32.82,1.72 40.38,-13.02 14.41,-28.16 15.36,-58.06 2.74,-86.49 -20.34,-45.82 -75.64,-83.8 -151.72,-104.21 -83.96,-22.52 -212.93,-28.92 -349.47,-35.7 -126.88,-6.3 -258.09,-12.82 -361.53,-32.55 -1.9,-0.36 -3.79,-0.53 -5.65,-0.53" style="fill:#1b6d42;fill-opacity:1;fill-rule:nonzero;stroke:none" id="path528"/>
      <path d="m 1622.87,3823.08 c -37.97,-7.24 -74.63,17.67 -81.87,55.65 l -138.92,728.47 c -7.24,37.98 17.67,74.64 55.65,81.88 37.98,7.24 74.63,-17.67 81.88,-55.65 l 138.91,-728.48 c 7.25,-37.97 -17.67,-74.63 -55.65,-81.87" style="fill:#fbca47;fill-opacity:1;fill-rule:nonzero;stroke:none" id="path530"/>
      <path d="m 1470.85,4665.32 c -2.78,0 -5.6,-0.25 -8.44,-0.8 -24.37,-4.65 -40.42,-28.26 -35.77,-52.64 l 138.92,-728.46 c 2.25,-11.82 8.96,-22.05 18.91,-28.79 9.93,-6.77 21.9,-9.25 33.72,-6.99 h 0.01 c 11.8,2.25 22.02,8.97 28.78,18.9 6.76,9.95 9.24,21.92 6.99,33.74 l -138.92,728.46 c -4.11,21.54 -23.03,36.58 -44.2,36.58 z m 138.7,-868.51 c -18.85,0 -37.26,5.63 -53.19,16.46 -20.99,14.27 -35.16,35.85 -39.91,60.78 l -138.92,728.47 c -9.82,51.45 24.06,101.3 75.51,111.12 51.5,9.73 101.31,-24.08 111.12,-75.53 l 138.92,-728.46 c 4.75,-24.94 -0.48,-50.22 -14.75,-71.21 -14.26,-20.99 -35.84,-35.16 -60.77,-39.92 -6,-1.14 -12.03,-1.71 -18.01,-1.71" style="fill:#cc9211;fill-opacity:1;fill-rule:nonzero;stroke:none" id="path532"/>
      <path d="m 227.355,2979.25 1297.765,259.99 c 0,0 127.28,-717.44 -518.17,-846.74 -611.11,-122.43 -779.595,586.75 -779.595,586.75" style="fill:#233338;fill-opacity:1;fill-rule:nonzero;stroke:none" id="path534"/>
      <path d="m 685.191,2409.03 c 53.039,-18.45 111.633,-29.39 176.313,-30.25 l 412.696,810.19 -221.37,-44.35 -367.639,-735.59" style="fill:#ffffff;fill-opacity:1;fill-rule:nonzero;stroke:none" id="path536"/>
      <path d="M 812.617,3096.5 516.324,2503.66 c 23.746,-19.21 49.133,-37.01 76.457,-52.73 l 341.227,669.89 -121.391,-24.32" style="fill:#ffffff;fill-opacity:1;fill-rule:nonzero;stroke:none" id="path538"/>
      <path d="m 1921.68,3318.68 1297.77,259.98 c 0,0 127.28,-717.43 -518.17,-846.74 -611.11,-122.42 -779.6,586.76 -779.6,586.76" style="fill:#233338;fill-opacity:1;fill-rule:nonzero;stroke:none" id="path540"/>
      <path d="m 2379.52,2748.46 c 53.04,-18.45 111.63,-29.39 176.31,-30.26 l 412.69,810.19 -221.36,-44.34 -367.64,-735.59" style="fill:#ffffff;fill-opacity:1;fill-rule:nonzero;stroke:none" id="path542"/>
      <path d="m 2506.95,3435.93 -296.3,-592.84 c 23.75,-19.21 49.13,-37.01 76.46,-52.74 l 341.23,669.89 -121.39,-24.31" style="fill:#ffffff;fill-opacity:1;fill-rule:nonzero;stroke:none" id="path544"/>
      <path d="m 1555.1,3238.11 -59.97,2.16 c 2.45,71.19 47.24,213.17 199.23,240.93 153.55,28.08 234.5,-87.94 255.84,-153.19 l -57.03,-18.66 c -1.86,5.57 -48.05,138.3 -188.03,112.83 -142.02,-25.95 -149.79,-177.62 -150.04,-184.07" style="fill:#233338;fill-opacity:1;fill-rule:nonzero;stroke:none" id="path546"/>
      <path d="m 265.016,2956.21 c 17.293,-56.44 62.433,-183.19 148.199,-299.91 149.668,-203.69 347.465,-282.55 587.845,-234.39 255.33,51.15 416.13,202.45 477.91,449.72 35.19,140.81 27,273.9 20.66,331.9 z M 870.68,2348.46 c -201.321,0 -374.649,93 -506.907,273.79 -120.695,164.98 -163.828,342.59 -165.605,350.07 -1.883,7.92 -0.465,16.27 3.93,23.13 4.394,6.84 11.382,11.62 19.367,13.22 l 1297.755,259.98 c 7.92,1.58 16.14,-0.09 22.8,-4.63 6.67,-4.55 11.22,-11.6 12.64,-19.54 1.34,-7.59 32.36,-187.96 -17.48,-387.4 -46.67,-186.79 -175.53,-424.12 -524.33,-494 -48.741,-9.76 -96.194,-14.62 -142.17,-14.62" style="fill:#233338;fill-opacity:1;fill-rule:nonzero;stroke:none" id="path548"/>
      <path d="m 1959.34,3295.63 c 17.3,-56.43 62.44,-183.2 148.2,-299.91 149.67,-203.69 347.47,-282.57 587.85,-234.38 254.69,51.02 415.34,201.73 477.47,447.94 35.6,141.08 27.4,275.32 21.06,333.67 z m 605.68,-607.74 c -201.33,0 -374.66,93.01 -506.92,273.79 -120.7,164.98 -163.83,342.59 -165.61,350.07 -1.88,7.92 -0.46,16.27 3.93,23.12 4.4,6.85 11.39,11.62 19.37,13.22 l 1297.76,259.98 c 7.92,1.59 16.15,-0.09 22.81,-4.63 6.66,-4.55 11.22,-11.6 12.63,-19.54 1.34,-7.58 32.36,-187.96 -17.48,-387.39 -46.68,-186.8 -175.54,-424.13 -524.33,-494 -48.74,-9.77 -96.19,-14.62 -142.16,-14.62" style="fill:#233338;fill-opacity:1;fill-rule:nonzero;stroke:none" id="path550"/>
      <path d="m 1202.25,1940.86 c 0,0 -328.242,-4.88 -385.609,29.96 -57.371,34.83 -27.586,378.29 -141.348,402.62 -134.199,28.69 -236.234,-509.73 -88.664,-664.35 129.07,-135.24 623.141,-58.12 623.141,-58.12 l -7.52,289.89" style="fill:#48bd86;fill-opacity:1;fill-rule:nonzero;stroke:none" id="path552"/>
      <path d="m 922.32,1629.01 c -8.937,0 -17.988,0.08 -27.14,0.25 7.922,-0.12 15.859,-0.19 23.742,-0.19 42.898,0 84.938,1.78 123.158,4.32 -33.36,-2.36 -74.971,-4.38 -119.76,-4.38 m -325.711,70.65 c -7.421,5.97 -14.093,12.41 -19.925,19.37 -21.801,26.01 -36.891,62.04 -46.411,103.95 11.672,-46.58 30.047,-86.33 56.356,-113.89 3.121,-3.27 6.445,-6.41 9.98,-9.43 m 1.582,627.39 c 6.778,11.76 13.782,21.83 20.918,29.91 0,0 -0.296,-1.8 -0.82,-5.2 -6.926,-6.87 -13.644,-15.18 -20.098,-24.71" style="fill:#7cbb9c;fill-opacity:1;fill-rule:nonzero;stroke:none" id="path554"/>
      <path d="m 918.922,1629.07 c -7.883,0 -15.82,0.07 -23.742,0.19 -110.297,2.1 -233.231,17.81 -298.571,70.4 -3.535,3.02 -6.859,6.16 -9.98,9.43 -26.309,27.56 -44.684,67.31 -56.356,113.89 -35.816,157.66 7.153,398.69 67.918,504.07 6.454,9.53 13.172,17.84 20.098,24.71 -6.777,-44.26 -50.984,-360.27 42.52,-516.52 95.058,-158.84 459.081,-194.48 459.081,-194.48 0,0 -30.69,-4.03 -77.81,-7.37 -38.22,-2.54 -80.26,-4.32 -123.158,-4.32" style="fill:#33a16c;fill-opacity:1;fill-rule:nonzero;stroke:none" id="path556"/>
      <path d="m 999.973,1586.6 c -140.59,0 -354.45,16.85 -444.989,111.72 -122.824,128.69 -90.011,481.41 -4.312,634.74 43.543,77.89 89.824,86.28 120.945,79.66 87.934,-18.8 106.25,-154.16 122.414,-273.58 6.489,-47.97 16.274,-120.28 28.789,-133.07 33.149,-19 220.6,-33.46 383.82,-36.49 16.57,-0.3 29.75,-13.99 29.44,-30.55 -0.31,-16.57 -14.12,-30.16 -30.55,-29.43 -58.47,1.07 -353.217,8.37 -414.409,45.51 -34.008,20.67 -43.215,77.43 -56.547,175.98 -11.48,84.82 -28.824,212.98 -75.5,222.96 -15.672,3.39 -36.574,-15.45 -56.027,-50.26 -75.438,-134.97 -105.664,-458.22 -4.656,-564.05 97.589,-102.25 414.539,-98.4 528.449,-88.3 16.46,1.45 31.07,-10.72 32.53,-27.22 1.47,-16.51 -10.71,-31.07 -27.21,-32.54 -6.11,-0.55 -59.32,-5.07 -132.187,-5.08" style="fill:#1b6d42;fill-opacity:1;fill-rule:nonzero;stroke:none" id="path558"/>
    </g>
  </g>
</svg>