<?xml version="1.0" encoding="UTF-8" standalone="no"?>
<!-- Created with Inkscape (http://www.inkscape.org/) -->

<svg
   version="1.1"
   id="svg2"
   width="1496"
   height="1496"
   viewBox="0 0 1496 1496"
   sodipodi:docname="5832.eps"
   xmlns:inkscape="http://www.inkscape.org/namespaces/inkscape"
   xmlns:sodipodi="http://sodipodi.sourceforge.net/DTD/sodipodi-0.dtd"
   xmlns="http://www.w3.org/2000/svg"
   xmlns:svg="http://www.w3.org/2000/svg">
  <defs
     id="defs6" />
  <sodipodi:namedview
     id="namedview4"
     pagecolor="#ffffff"
     bordercolor="#000000"
     borderopacity="0.25"
     inkscape:showpageshadow="2"
     inkscape:pageopacity="0.0"
     inkscape:pagecheckerboard="0"
     inkscape:deskcolor="#d1d1d1" />
  <g
     id="g8"
     inkscape:groupmode="layer"
     inkscape:label="ink_ext_XXXXXX"
     transform="matrix(1.3333333,0,0,-1.3333333,0,1496)">
    <g
       id="g10"
       transform="scale(0.1)">
      <path
         d="M 11220,0 H 0 V 11220 H 11220 V 0"
         style="fill:#ffffff;fill-opacity:1;fill-rule:nonzero;stroke:none"
         id="path12" />
      <path
         d="m 5838.41,3918.84 v 429.91 c 124.97,76.98 208.79,213.88 208.79,371.41 0,331.95 -369.96,577.42 -720.2,346.72 -25.66,-17 -48.11,-39.48 -64.81,-65.36 -171.88,-263.9 -76.32,-531.94 119.46,-652.77 v -429.91 h 456.76"
         style="fill:#aad4c8;fill-opacity:1;fill-rule:nonzero;stroke:none"
         id="path14" />
      <path
         d="m 5262.19,5001.52 c 16.7,25.88 39.15,48.36 64.81,65.36 350.24,230.7 720.2,-14.77 720.2,-346.72 0,-157.53 -83.82,-294.43 -208.79,-371.41 v -429.91 h -456.76 v 429.91 c -195.78,120.83 -291.34,388.87 -119.46,652.77 z m -275.86,2695.46 c 793.86,504.2 1629.58,-58.4 1629.58,-813.26 h 785.31 c 0,1289.26 -1369.45,2265.09 -2729.47,1548.7 -529.44,-278.81 -852.74,-836.69 -852.74,-1435.06 v -774.53 h -351.74 c -188.23,0 -340.74,-152.51 -340.74,-340.68 v -2704.9 h 4966.94 v 2704.96 c 0,188.11 -152.4,340.62 -340.56,340.62 H 7401.22 6615.91 4604.33 v 772.27 c 0,283.44 142.83,549.85 382,701.88"
         style="fill:#616e7d;fill-opacity:1;fill-rule:nonzero;stroke:none"
         id="path16" />
      <path
         d="m 3671.83,2544.99 h 3876.58 c 254.43,0 467.7,174.81 527.56,410.7 H 3144.09 c 60.03,-235.89 273.3,-410.7 527.74,-410.7"
         style="fill:#616e7d;fill-opacity:1;fill-rule:nonzero;stroke:none"
         id="path18" />
      <path
         d="m 3126.53,3090.52 c 0,-46.57 6.49,-91.57 17.56,-134.83 h 4931.88 c 11.01,43.26 17.5,88.26 17.5,134.83 v 86.73 H 3126.53 v -86.73"
         style="fill:#82bfab;fill-opacity:1;fill-rule:nonzero;stroke:none"
         id="path20" />
    </g>
  </g>
</svg>
