<svg xmlns="http://www.w3.org/2000/svg" version="1.1" viewBox="35 720 3769 720.3">
<path d="M0 0 C55.11 0 110.22 0 167 0 C187.40622041 53.28290886 187.40622041 53.28290886 193.27670288 68.76806641 C200.38720389 87.52214113 207.52998137 106.26382607 214.6875 125 C215.12497559 126.14518097 215.56245117 127.29036194 216.01318359 128.47024536 C216.44711426 129.60614105 216.88104492 130.74203674 217.328125 131.91235352 C218.19532278 134.1824505 219.06251036 136.45255138 219.9296875 138.72265625 C220.56544708 140.3869442 220.56544708 140.3869442 221.21405029 142.08485413 C225.58671449 153.53325447 229.95076597 164.9849316 234.3125 176.4375 C234.65969086 177.34910889 235.00688171 178.26071777 235.36459351 179.19995117 C237.24336422 184.13318587 239.12183461 189.06653481 241 194 C245.90614195 184.32098857 250.65493691 174.60648814 255.0625 164.6875 C255.33212555 164.08294983 255.6017511 163.47839966 255.87954712 162.85552979 C269.4324645 132.45957784 282.21534913 101.72465306 295 71 C295.61893127 69.51339874 295.61893127 69.51339874 296.25036621 67.99676514 C298.8034372 61.86373543 301.35201711 55.72886637 303.8951416 49.59170532 C304.69783408 47.65542384 305.50142276 45.71951358 306.30603027 43.7840271 C310.89502588 32.74006679 315.34339157 21.66138353 319.51956177 10.45376587 C319.83134369 9.62130341 320.14312561 8.78884094 320.46435547 7.93115234 C320.87450394 6.82578629 320.87450394 6.82578629 321.29293823 5.6980896 C322 4 322 4 323 3 C325.84470832 2.902074 328.66513904 2.87007507 331.51026917 2.87974548 C332.86524841 2.87846385 332.86524841 2.87846385 334.24760097 2.87715632 C337.29863191 2.87549874 340.34960883 2.8810274 343.40063477 2.88647461 C345.57809447 2.88675645 347.75555427 2.88659881 349.93301392 2.8860321 C355.86459197 2.885744 361.79614999 2.89164284 367.72772336 2.89860606 C373.91906207 2.90483742 380.11040119 2.90544323 386.30174255 2.90663147 C397.36713847 2.90956818 408.43252607 2.91679831 419.49791818 2.92627419 C433.51986384 2.93821849 447.54180835 2.94440075 461.56375802 2.94967639 C489.04251049 2.96014225 516.52125473 2.97774294 544 3 C544.479425 4.26574927 544.95763689 5.53195806 545.43534565 6.79835606 C545.70178169 7.5034259 545.96821772 8.20849574 546.24272758 8.93493134 C547.26803744 11.73093341 548.1335196 14.56068502 548.97924805 17.41577148 C549.5248085 19.24977005 549.5248085 19.24977005 550.08139038 21.12081909 C550.47488665 22.4542282 550.86832757 23.78765364 551.26171875 25.12109375 C551.68437389 26.54590061 552.10728353 27.97063199 552.53042603 29.39529419 C553.67872857 33.26409006 554.82347901 37.13392892 555.96762466 41.00395584 C557.1855102 45.12102734 558.4067898 49.23709186 559.62768555 53.35327148 C561.96127336 61.22271981 564.29192534 69.0930343 566.62134457 76.96371746 C568.45021262 83.14304123 570.27991304 89.32211782 572.11035156 95.50097656 C572.36545974 96.36212507 572.62056791 97.22327358 572.88340664 98.1105175 C574.1666873 102.44224714 575.45008157 106.77394311 576.73353577 111.10562134 C577.2446437 112.83066676 577.75574703 114.55571355 578.2668457 116.28076172 C578.5189232 117.1315587 578.77100069 117.98235569 579.0307169 118.8589344 C580.54865147 123.98266897 582.06552077 129.10671755 583.581563 134.23101234 C588.24916327 150.00718376 592.92361913 165.78101958 597.66051292 181.53654671 C598.28259554 183.60611501 598.90402675 185.67587771 599.52522278 187.74571228 C599.92330094 189.07193245 600.32138735 190.39815014 600.71948242 191.72436523 C600.91163362 192.36454307 601.10378481 193.0047209 601.30175877 193.66429806 C602.58764656 197.94603316 603.88160864 202.22528342 605.17700195 206.50415039 C605.82658312 208.66545268 606.47593145 210.82682496 607.125 212.98828125 C607.42057297 213.95699158 607.71614594 214.9257019 608.02067566 215.92376709 C608.4164959 217.24794647 608.4164959 217.24794647 608.8203125 218.59887695 C609.04992676 219.35828079 609.27954102 220.11768463 609.51611328 220.90010071 C610 223 610 223 610 227 C610.66 227 611.32 227 612 227 C612.18234695 226.25692596 612.36469391 225.51385193 612.55256653 224.7482605 C614.24041492 217.92552042 616.03367186 211.14482078 617.94921875 204.3828125 C618.37719254 202.86316643 618.37719254 202.86316643 618.81381226 201.31282043 C619.43899321 199.09318823 620.06489554 196.87375912 620.69143677 194.6545105 C622.27612638 189.03922579 623.85452575 183.42217273 625.43337059 177.80524254 C626.01726106 175.72810637 626.60130959 173.65101469 627.18537903 171.57392883 C632.23072741 153.62975507 637.26264608 135.68182856 642.28161621 117.73025894 C642.80223831 115.86830195 643.32299028 114.00638128 643.84387207 112.14449692 C649.21299163 92.95254442 654.57280169 73.75950259 659.6953125 54.5 C659.95980226 53.50645099 659.95980226 53.50645099 660.22963524 52.49283028 C661.98557332 45.89330624 663.72724094 39.2903055 665.44750977 32.68139648 C665.72412445 31.62964233 666.00073914 30.57788818 666.28573608 29.4942627 C666.78311896 27.60298727 667.2750264 25.71025546 667.75918579 23.81555176 C669.67740225 16.5521452 672.25144735 10.1462369 675 3 C717.24 3 759.48 3 803 3 C805.8875 13.1475 808.775 23.295 811.75 33.75 C813.59513279 40.21427694 815.44078166 46.67837094 817.29296875 53.140625 C817.64036134 54.35268993 817.64036134 54.35268993 817.99477196 55.58924103 C829.23851838 94.80231274 840.76240554 133.93228848 852.70109177 172.93960571 C853.300234 174.8974185 853.8986889 176.85544046 854.49710083 178.81347656 C858.48947881 191.86005614 862.53190737 204.87903068 866.95368958 217.7875824 C869 223.79803654 869 223.79803654 869 226 C869.66 226 870.32 226 871 226 C871.13019531 225.28755127 871.26039063 224.57510254 871.39453125 223.84106445 C872.00056925 220.99732889 872.79665307 218.31018553 873.6875 215.54296875 C879.64772706 196.6526681 884.87818742 177.58638969 889.9375 158.4375 C890.2035202 157.43116264 890.2035202 157.43116264 890.47491455 156.40449524 C893.12689844 146.37000813 895.76461635 136.33178697 898.39852142 126.2925415 C899.42574901 122.37725347 900.45332141 118.46205595 901.48095703 114.546875 C901.79204517 113.36161177 901.79204517 113.36161177 902.10941792 112.15240383 C903.78949623 105.75213515 905.47219974 99.35255866 907.15603924 92.95327854 C908.16408198 89.12115341 909.17033783 85.28857858 910.17208862 81.45480347 C914.22876053 65.92965276 918.37378257 50.43931942 922.84375 35.02734375 C923.20895752 33.76639389 923.57416504 32.50544403 923.95043945 31.20628357 C931.46666883 5.53333117 931.46666883 5.53333117 934 3 C935.96369153 2.9059933 937.93079199 2.88256619 939.89672852 2.88647461 C941.15796036 2.88655014 942.4191922 2.88662567 943.71864319 2.88670349 C945.10539794 2.8918109 946.49215229 2.89702691 947.87890625 2.90234375 C949.28995209 2.90420799 950.70099857 2.90563186 952.11204529 2.90663147 C955.83240535 2.91045621 959.5527266 2.9202861 963.27307129 2.93133545 C967.06680781 2.94155052 970.86055058 2.94612929 974.65429688 2.95117188 C982.10288231 2.96190842 989.55143572 2.9789843 997 3 C994.14763817 14.65294239 991.06789862 26.23195527 987.87890625 37.796875 C987.38191932 39.60449148 986.88508724 41.41215055 986.38839722 43.21984863 C985.05871162 48.05728894 983.72667564 52.89407903 982.39411545 57.73072815 C981.27045613 61.81029758 980.14818287 65.8902478 979.02589893 69.97019577 C969.92964602 103.0379426 960.79905638 136.09619367 951.65784454 169.15153503 C946.11863099 189.1823054 940.58952333 209.21586305 935.0625 229.25 C934.81227333 230.15697128 934.56204666 231.06394257 934.30423737 231.99839783 C928.54405601 252.8770156 922.78916478 273.75707877 917.046875 294.640625 C916.80381056 295.52459206 916.56074612 296.40855911 916.31031609 297.31931305 C914.02333504 305.63685958 911.73677532 313.95452169 909.45202827 322.27268219 C902.3321288 348.19040665 895.16530112 374.09468055 888 400 C848.73 400 809.46 400 769 400 C754.30260277 350.25496321 754.30260277 350.25496321 749.58151245 333.7756958 C725.1779931 248.45937543 725.1779931 248.45937543 698 164 C697.67 163.01 697.34 162.02 697 161 C691.28307368 179.91213358 685.69195112 198.85485058 680.25049591 217.84839249 C678.63048005 223.50009485 677.00542151 229.15035183 675.38152313 234.80093956 C674.71476082 237.12122553 674.04820138 239.44156972 673.38165283 241.76191711 C667.45120633 262.40302 661.49051064 283.0354049 655.53274918 303.66863632 C654.64288534 306.75055659 653.75310952 309.83250226 652.8633728 312.91445923 C652.57728873 313.90541816 652.29120466 314.89637709 651.99645138 315.91736507 C651.42311762 317.90336044 650.84980228 319.88936113 650.27650547 321.87536716 C648.87032047 326.74640849 647.4636223 331.61730047 646.05580139 336.48786926 C643.4373757 345.5481227 640.82322374 354.60954297 638.22361946 363.67521763 C637.01207786 367.89926226 635.79816395 372.12262339 634.58402634 376.34592247 C634.00512164 378.36213339 633.42739285 380.37868234 632.85087967 382.39557838 C632.05763954 385.1704097 631.26046871 387.94408289 630.46240234 390.7175293 C630.1085528 391.96133519 630.1085528 391.96133519 629.74755478 393.23026848 C628.11388094 398.88611906 628.11388094 398.88611906 627 400 C625.41845152 400.09594225 623.83260875 400.1218796 622.24815369 400.12025452 C620.7063015 400.12231651 620.7063015 400.12231651 619.13330078 400.12442017 C617.42750854 400.11902725 617.42750854 400.11902725 615.68725586 400.11352539 C613.90213341 400.11374443 613.90213341 400.11374443 612.08094788 400.1139679 C608.80836726 400.11338894 605.53582893 400.10835981 602.26325679 400.10139394 C598.84661335 400.09515967 595.42996917 400.09455654 592.01332092 400.09336853 C585.53930733 400.09025543 579.06531054 400.08204233 572.59130436 400.07201904 C565.2226208 400.06085725 557.85393645 400.05534729 550.48524654 400.05032361 C535.32348831 400.03985969 520.16174583 400.02226066 505 400 C504.36573223 398.43850179 503.73392021 396.87600597 503.10310364 395.31311035 C502.75099225 394.44310646 502.39888086 393.57310257 502.03609943 392.67673492 C500.37356263 388.38161596 499.03631477 383.99892387 497.69921875 379.59375 C497.39047821 378.58958542 497.08173767 377.58542084 496.76364136 376.55082703 C496.09037627 374.35958669 495.41899845 372.16776579 494.7492981 369.97543335 C493.07496598 364.49507912 491.38876831 359.01837773 489.70401573 353.54121971 C489.09354019 351.55594257 488.48359268 349.57050379 487.87373352 347.58503723 C483.05374685 331.89794824 478.17589498 316.22886292 473.30029297 300.55899048 C471.32642186 294.21436979 469.35389952 287.86932952 467.38111115 281.5243721 C466.65106602 279.17642252 465.92096528 276.82849023 465.19085693 274.4805603 C460.68463894 259.98862174 456.18491404 245.49467326 451.6875 231 C451.32354126 229.8270639 450.95958252 228.65412781 450.58459473 227.44564819 C447.69839811 218.14419449 444.81261976 208.84261104 441.92687988 199.54101562 C439.38895958 191.36061306 436.85085729 183.18026698 434.3125 175 C433.94885345 173.82808105 433.58520691 172.65616211 433.21054077 171.44873047 C428.12015198 155.0448585 423.02546299 138.64232718 417.92674255 122.24104309 C417.43659404 120.66435769 416.94644614 119.0876721 416.45629883 117.51098633 C416.21247813 116.72667897 415.96865744 115.94237162 415.71744823 115.13429737 C414.00309548 109.61933275 412.28980223 104.10403967 410.5769043 98.58862305 C409.6112499 95.47962869 408.64550204 92.37066337 407.6796875 89.26171875 C407.44217333 88.49713537 407.20465916 87.73255199 406.95994759 86.94479942 C403.94716883 77.2477439 400.92479525 67.55375251 397.89080811 57.86331177 C396.39801801 53.0952945 394.90858198 48.32623174 393.42004013 43.55688667 C392.43360874 40.39725965 391.44455404 37.23849031 390.4519043 34.08081055 C389.37198149 30.64519998 388.29855944 27.20762161 387.2265625 23.76953125 C386.91107452 22.77210403 386.59558655 21.77467682 386.27053833 20.74702454 C384.74167503 15.82032061 383.54178303 11.13363807 383 6 C382.34 6 381.68 6 381 6 C380.608125 7.25425781 380.21625 8.50851562 379.8125 9.80078125 C377.92641976 15.44695982 375.4746216 20.77955872 373 26.1875 C356.75995341 62.34561784 342.43046953 99.34856121 327.74334717 136.15518188 C317.69446263 161.33661542 307.5486403 186.46896042 297.11791992 211.49514771 C293.03031327 221.3103113 289.01771153 231.15607521 285 241 C278.4281633 257.09369308 271.81079777 273.16811235 265.16748047 289.23242188 C259.43170349 303.10261582 253.71620985 316.98086017 248.02920532 330.87112427 C244.16732793 340.30331752 240.28808684 349.72792682 236.37890625 359.140625 C234.77281354 363.01015804 233.16736234 366.87995651 231.5625 370.75 C231.16474365 371.70901215 230.7669873 372.66802429 230.35717773 373.65609741 C224.79920426 387.07061666 219.38388985 400.53458054 214.08258057 414.05249023 C199.80244235 450.45931495 185.06160998 487.19236806 159 517 C158.40316406 517.72832031 157.80632813 518.45664063 157.19140625 519.20703125 C155.84321467 520.84619943 154.42940106 522.43114517 153 524 C152.34 524 151.68 524 151 524 C151 524.66 151 525.32 151 526 C133.24374116 545.41056867 104.77346442 557.76211671 78.90087891 559.16845703 C47.51837393 560.26165317 19.13377328 554.57401722 -6 535 C-6.99 534.34 -7.98 533.68 -9 533 C-9 532.34 -9 531.68 -9 531 C-9.99 530.67 -10.98 530.34 -12 530 C-24.04434954 516.97156506 -32.88480873 499.87685398 -34 482 C-34.05285156 481.20464844 -34.10570312 480.40929688 -34.16015625 479.58984375 C-34.83267005 459.73606683 -27.30242795 442.10235296 -14.65234375 427.2421875 C-4.07799998 415.99727559 10.46645869 407.45512315 26.15234375 406.76171875 C45.3363752 406.31375655 61.70883024 411.37215594 75.88745117 424.73828125 C88.82561564 437.5089825 95.21437212 453.02577443 95.4375 471.0625 C95.38487881 478.77648251 94.52440176 485.04260748 91 492 C90.39084226 493.25598485 89.78285397 494.51253729 89.17578125 495.76953125 C87.49799282 499.20526674 85.76317916 502.60736594 84 506 C92.01266035 508.15524921 98.77228345 506.64897729 106.03515625 502.96875 C108.11436845 501.74519769 110.05249669 500.4238999 112 499 C112.69738281 498.49210937 113.39476563 497.98421875 114.11328125 497.4609375 C133.60443931 481.74337842 149.71298882 448.51787029 153 424 C153.28328769 420.95712372 153.4252935 417.92980519 153.5 414.875 C153.53077637 414.17858398 153.56155273 413.48216797 153.59326172 412.76464844 C153.59660923 397.61382224 146.96664765 382.59962624 141.13262939 368.91210938 C139.105506 364.14759927 137.12718189 359.36288762 135.1484375 354.578125 C134.5194606 353.05874329 134.5194606 353.05874329 133.8777771 351.50866699 C128.90138177 339.42595501 124.25857639 327.21735508 119.625 315 C119.18672882 313.84555389 118.74845764 312.69110779 118.29690552 311.50167847 C116.51643691 306.81127111 114.73678771 302.12055534 112.95918274 297.42906189 C108.32673732 285.20756602 103.63538345 273.00895924 98.9375 260.8125 C98.10818393 258.65822304 97.2789196 256.50392617 96.44970703 254.34960938 C94.79472683 250.05018 93.13941543 245.75087835 91.48388672 241.45166016 C87.73662378 231.71961303 83.99387534 221.98582958 80.25073242 212.25219727 C79.00129191 209.00335926 77.75165542 205.7545967 76.50195312 202.50585938 C72.74109731 192.7289208 68.98098983 182.95169734 65.22438049 173.17312622 C56.61782174 150.77011146 47.9936334 128.37423611 39.3125 106 C38.5245611 103.96851196 37.73663784 101.93701785 36.94873047 99.90551758 C33.8729774 91.97626315 30.79711575 84.04705752 27.71289062 76.12109375 C20.33265568 57.15400017 12.97503762 38.18312416 6 19.0625 C5.74566193 18.36809814 5.49132385 17.67369629 5.22927856 16.95825195 C4.52342573 15.02712375 3.82304296 13.09411923 3.125 11.16015625 C2.73570313 10.08386963 2.34640625 9.00758301 1.9453125 7.89868164 C1 5 1 5 0 0 Z " fill="#EE1B2E" transform="translate(1950,881)"/>
<path d="M0 0 C55.44 0 110.88 0 168 0 C168.25077444 52.10734513 168.25077444 52.10734513 168.35546875 74.02734375 C168.42761767 89.13232557 168.49986333 104.23730689 168.57275391 119.34228516 C168.6258511 130.34561392 168.67860809 141.34894426 168.73096704 152.35227656 C168.75866781 158.1712053 168.78653179 163.99013315 168.81480408 169.80905914 C168.8414859 175.30175143 168.86770801 180.79444573 168.89359856 186.2871418 C168.90310702 188.28798819 168.91277417 190.28883384 168.92262459 192.28967857 C168.93621127 195.05462834 168.94918692 197.81958041 168.96203613 200.58453369 C168.96592708 201.34726695 168.96981803 202.11000021 168.97382689 202.89584661 C169.01594398 212.26402187 169 221.63144035 169 231 C212.56 231 256.12 231 301 231 C301 154.77 301 78.54 301 0 C356.44 0 411.88 0 469 0 C469 185.13 469 370.26 469 561 C463.52690807 561.60812133 458.64994719 562.12512029 453.23899841 562.12698364 C451.96765045 562.12980347 450.69630249 562.13262329 449.38642883 562.13552856 C448.00558457 562.13358492 446.62474045 562.13153679 445.24389648 562.12939453 C443.76788286 562.13075176 442.29186958 562.1325335 440.81585693 562.13470459 C436.83043412 562.13924021 432.84503737 562.13750547 428.85961413 562.1343255 C424.6766775 562.13178231 420.493743 562.13414484 416.31080627 562.13571167 C409.28931276 562.13752745 402.2678298 562.13514236 395.24633789 562.13037109 C387.1421135 562.12492749 379.03791427 562.12669423 370.93369049 562.1321975 C363.95934187 562.13674294 356.9850008 562.13737223 350.01065117 562.13475883 C345.85220907 562.13320421 341.69377878 562.13297995 337.53533745 562.13629532 C333.62582604 562.13919492 329.71634693 562.13716008 325.80683899 562.13140106 C324.37662878 562.13008474 322.94641584 562.13044831 321.51620674 562.13266373 C319.55547817 562.13541972 317.59474361 562.13134216 315.63401794 562.12698364 C314.53955573 562.12660662 313.44509352 562.12622959 312.31746578 562.12584114 C308.48988776 561.98064996 304.79403352 561.52070037 301 561 C300.87229197 530.51930869 300.74486222 500.03861623 300.61781773 469.55792214 C300.60279851 465.954549 300.58777694 462.35117586 300.57275391 458.74780273 C300.56976329 458.03047461 300.56677268 457.31314649 300.56369144 456.57408115 C300.51534341 444.97868114 300.46680462 433.38328193 300.41819459 421.78788302 C300.36827307 409.87862039 300.31855825 397.96935691 300.26903296 386.06009263 C300.2412294 379.37563053 300.21332547 372.69116888 300.18519592 366.00670815 C300.15869632 359.70885564 300.13245277 353.41100211 300.10640144 347.11314774 C300.09682096 344.80781325 300.08714875 342.50247914 300.07737541 340.19714546 C300.06398642 337.03563153 300.05093578 333.87411637 300.03796387 330.71260071 C300.03407292 329.81274911 300.03018197 328.91289751 300.02617311 327.98577768 C299.99801459 320.99033929 300 313.99568037 300 307 C256.44 306.67 212.88 306.34 168 306 C168 390.15 168 474.3 168 561 C112.56 561 57.12 561 0 561 C0 375.87 0 190.74 0 0 Z " fill="#EE1B2E" transform="translate(35,720)"/>
<path d="M0 0 C0.81726562 0.68449219 1.63453125 1.36898437 2.4765625 2.07421875 C18.43908326 15.78171674 31.81046081 33.73561828 38 54 C38.23074219 54.74894531 38.46148438 55.49789062 38.69921875 56.26953125 C42.19282053 69.62450542 41.11428758 84.47580167 41.04673767 98.14915466 C41.01976266 103.82206575 41.01199055 109.49500398 41.00390625 115.16796875 C41.00110783 116.90878849 41.00110783 116.90878849 40.99825287 118.68477631 C40.98641335 130.11384615 41.08669168 141.54055582 41.21875 152.96875 C41.22986942 153.95343136 41.24098885 154.93811272 41.25244522 155.9526329 C41.29816261 160.00049851 41.34443869 164.04835699 41.39171028 168.09620476 C41.85598791 207.86856909 42.11125189 247.63899437 42.12338257 287.41409302 C42.12497647 290.82464908 42.12851352 294.23519801 42.13256836 297.64575195 C42.15436663 318.29156305 42.15059604 338.93158213 41.5546875 359.5703125 C41.52556463 360.61615824 41.52556463 360.61615824 41.49585342 361.68313217 C41.29728721 368.55977252 40.85582719 375.15338247 40 382 C-10.49 382 -60.98 382 -113 382 C-114.12498072 373.00015421 -114.12498072 373.00015421 -114.11466789 368.60377312 C-114.11480884 367.60371077 -114.1149498 366.60364843 -114.11509502 365.57328117 C-114.11013582 364.49721331 -114.10517662 363.42114546 -114.10006714 362.31246948 C-114.09817373 360.57131463 -114.09817373 360.57131463 -114.09624207 358.79498494 C-114.09180996 355.59061801 -114.08288625 352.38630021 -114.07208848 349.18194962 C-114.06156262 345.71894727 -114.05696535 342.25593668 -114.05175781 338.79292297 C-114.04206411 332.79568505 -114.02902802 326.79846207 -114.01403427 320.8012352 C-113.99060457 311.31176227 -113.97764398 301.8222882 -113.96633911 292.33279419 C-113.96233799 289.08174699 -113.95826925 285.83069988 -113.95417976 282.57965279 C-113.95316054 281.7672471 -113.95214131 280.95484141 -113.95109119 280.11781736 C-113.93935802 270.8786724 -113.92547785 261.63953109 -113.91064453 252.40039062 C-113.9092921 251.55626177 -113.90793967 250.71213292 -113.90654625 249.84242441 C-113.88437995 236.17243944 -113.85450798 222.50247917 -113.82267712 208.83251379 C-113.7902304 194.77710543 -113.76940133 180.72170995 -113.75840485 166.66626847 C-113.7512016 158.0087238 -113.73456884 149.35130165 -113.70560409 140.69380195 C-113.68653146 134.75403631 -113.67852058 128.81431917 -113.67900907 122.87452321 C-113.67894637 119.45400432 -113.67410381 116.03367726 -113.65584183 112.61320305 C-112.80625512 86.02386402 -112.80625512 86.02386402 -124.0078125 62.75 C-133.80515035 53.46471813 -145.52102528 50.45265109 -158.8125 50.7578125 C-182.21938164 52.53627655 -200.84064935 65.42807552 -218 80.5 C-221 83 -221 83 -223 83 C-223 181.67 -223 280.34 -223 382 C-273.82 382 -324.64 382 -377 382 C-377.04033135 299.25799676 -377.04033135 299.25799676 -377.04882812 264.265625 C-377.05078496 256.26106769 -377.05280515 248.25651039 -377.05493164 240.25195312 C-377.05519539 239.24919515 -377.05545914 238.24643718 -377.05573088 237.2132926 C-377.06003881 221.18350651 -377.06789881 205.15372414 -377.0771528 189.12394023 C-377.0866213 172.58024986 -377.09208296 156.03656139 -377.09408849 139.49286842 C-377.09543688 129.34664236 -377.09963625 119.2004268 -377.10791647 109.05420399 C-377.11334832 102.0249213 -377.11476866 94.99564375 -377.11350138 87.96635914 C-377.11288253 83.95649581 -377.11357478 79.94665031 -377.11920547 75.93679047 C-377.15793492 43.27991071 -376.51033838 10.66165656 -376 -22 C-325.84 -22 -275.68 -22 -224 -22 C-220.52939234 -11.58817703 -220.86894354 -1.25348705 -220.9375 9.625 C-220.94252803 11.02473797 -220.94708862 12.4244777 -220.95117188 13.82421875 C-220.96286833 17.21619169 -220.97925914 20.60807233 -221 24 C-219.87078125 23.03513672 -219.87078125 23.03513672 -218.71875 22.05078125 C-215.15929711 19.01779045 -211.58213465 16.00614874 -208 13 C-207.35836914 12.46020508 -206.71673828 11.92041016 -206.05566406 11.36425781 C-147.53869321 -37.67770127 -61.57747823 -54.09344626 0 0 Z " fill="#EE1B2E" transform="translate(1428,899)"/>
<path d="M0 0 C1.3573526 -0.00101212 1.3573526 -0.00101212 2.74212646 -0.00204468 C63.61975392 0.06974339 120.99185096 18.86876635 165.4375 61.25 C166.33984375 62.08789062 167.2421875 62.92578125 168.171875 63.7890625 C205.47180823 99.4719466 226.38896106 153.67994353 227.8203125 204.6875 C228.68609427 245.32057578 221.17256022 284.37317644 201.4375 320.25 C201.09638184 320.87036133 200.75526367 321.49072266 200.40380859 322.12988281 C191.95079371 337.27207901 181.46743423 350.7940766 169.4375 363.25 C168.51789807 364.2327632 167.59863063 365.2158395 166.6796875 366.19921875 C154.40071617 379.1255652 139.80114612 389.31719303 124.4375 398.25 C123.83260742 398.60400879 123.22771484 398.95801758 122.60449219 399.32275391 C101.14313591 411.73028245 77.0226748 419.48753655 52.75 424.0625 C51.71931396 424.25739014 50.68862793 424.45228027 49.62670898 424.65307617 C32.59417975 427.65944014 15.58206616 428.63481747 -1.6875 428.5625 C-2.62271484 428.56034485 -3.55792969 428.5581897 -4.52148438 428.55596924 C-59.50005667 428.35363574 -114.84221041 413.4539048 -156.85546875 376.59765625 C-159.44278556 374.28022713 -159.44278556 374.28022713 -161.92578125 372.55859375 C-162.73595703 371.91083984 -162.73595703 371.91083984 -163.5625 371.25 C-163.5625 370.59 -163.5625 369.93 -163.5625 369.25 C-164.45388672 368.84587891 -164.45388672 368.84587891 -165.36328125 368.43359375 C-172.91552892 364.36906259 -178.37057194 355.83403018 -183.5625 349.25 C-184.29597656 348.321875 -185.02945313 347.39375 -185.78515625 346.4375 C-202.14957791 325.1954994 -214.29248045 301.06871478 -221.5625 275.25 C-221.91948975 273.98325439 -221.91948975 273.98325439 -222.28369141 272.69091797 C-237.51521244 217.13756025 -230.43486282 156.01583479 -202.15576172 105.74951172 C-173.25082321 56.15760943 -126.42512654 23.50655494 -71.54638672 8.42089844 C-58.40896593 5.01946491 -45.04479682 2.75512169 -31.5625 1.25 C-30.70567627 1.15428711 -29.84885254 1.05857422 -28.96606445 0.95996094 C-19.32794281 0.02146135 -9.67497323 0.0065057 0 0 Z M-36.4609375 54.953125 C-63.74156801 83.34473141 -61.25629938 135.86822794 -60.5625 172.25 C-60.49108655 174.77225506 -60.41522863 177.29438655 -60.3359375 179.81640625 C-60.2432084 182.81505754 -60.15236329 185.81376151 -60.0625 188.8125 C-60.02626022 190.00027039 -60.02626022 190.00027039 -59.98928833 191.21203613 C-59.60078581 204.46950185 -59.53372614 217.71865466 -59.56640625 230.98046875 C-59.56815731 231.81464891 -59.56990837 232.64882908 -59.57171249 233.50828743 C-59.58799598 241.17551462 -59.60600841 248.84270572 -59.65625 256.50979614 C-61.91113973 318.92961456 -61.91113973 318.92961456 -36.56640625 373.47265625 C-26.51306077 382.38936617 -15.88471645 385.82432453 -2.625 385.625 C-1.65933105 385.61629883 -0.69366211 385.60759766 0.30126953 385.59863281 C7.04453338 385.45964342 13.15312706 384.85433473 19.4375 382.25 C20.46423828 381.86714844 20.46423828 381.86714844 21.51171875 381.4765625 C33.98232927 376.13551517 41.68286765 364.69178451 47.0625 352.75 C57.59453353 325.79630892 58.63386311 296.76735374 58.5625 268.1875 C58.5609491 267.07913788 58.55939819 265.97077576 58.55780029 264.8288269 C58.54224471 254.96906673 58.49367777 245.10959464 58.4375 235.25 C58.43218262 234.30500137 58.42686523 233.36000275 58.42138672 232.3863678 C58.33949241 217.98927442 58.23747863 203.59241775 58.11810303 189.19558716 C58.08046443 184.63756147 58.04665668 180.07953287 58.01617432 175.52145386 C57.9790885 170.04280233 57.9325538 164.56430109 57.87956238 159.0857811 C57.86132458 157.05803809 57.84602882 155.0302658 57.8341217 153.00247574 C57.71845888 134.02130835 57.15210798 114.73715895 53.125 96.125 C52.9069873 95.08641846 52.68897461 94.04783691 52.46435547 92.9777832 C48.93721182 76.76331873 43.07705152 58.75210169 29.08984375 48.53515625 C8.25230817 35.36274195 -18.2649109 38.62911759 -36.4609375 54.953125 Z " fill="#EE1B2E" transform="translate(779.5625,867.75)"/>
<path d="M0 0 C5.98686095 5.44760325 10.993964 11.65396447 16 18 C16.74507812 18.93972656 17.49015625 19.87945313 18.2578125 20.84765625 C45.98790437 56.74218283 61.23730316 104.00189191 61.1328125 149.2421875 C61.13424759 150.63837814 61.13424759 150.63837814 61.13571167 152.06277466 C61.1363867 154.01060047 61.13458015 155.95842862 61.13037109 157.90625 C61.12497635 160.88807166 61.1303578 163.86974522 61.13671875 166.8515625 C61.13605856 168.7526045 61.13477863 170.6536464 61.1328125 172.5546875 C61.13483673 173.44324432 61.13686096 174.33180115 61.13894653 175.24728394 C61.13579437 176.07559723 61.13264221 176.90391052 61.12939453 177.75732422 C61.12820114 178.84459305 61.12820114 178.84459305 61.12698364 179.9538269 C61 182 61 182 60 186 C-33.06 186 -126.12 186 -222 186 C-223.3461955 225.34326449 -223.3461955 225.34326449 -219.25 265.25 C-219.0744458 266.08644043 -218.8988916 266.92288086 -218.71801758 267.78466797 C-216.20491329 279.20746936 -212.31909222 288.80461507 -205 298 C-204.22527344 298.99128906 -203.45054687 299.98257812 -202.65234375 301.00390625 C-188.38412842 317.95850437 -161.96491254 323.50348926 -140.96875 325.38671875 C-109.1174789 327.73093789 -75.47377934 322.15540767 -50.11328125 301.66796875 C-47.65982351 299.51523378 -45.31189095 297.30329656 -43 295 C-42.17628906 294.21109375 -42.17628906 294.21109375 -41.3359375 293.40625 C-31.32110485 282.90942006 -26.61743129 267.48062434 -21.83447266 254.14379883 C-21.01636161 252.04203374 -20.00863493 250.01726987 -19 248 C3.77 248 26.54 248 50 248 C47.02268752 277.77312476 26.05039873 308.58157468 3.640625 327.890625 C-51.9735282 372.31613199 -132.75998456 378.34987495 -201 371 C-256.30350406 364.0436281 -305.47087062 339.69315632 -340.42773438 295.39282227 C-343.02980892 291.98206834 -345.5386954 288.51337087 -348 285 C-348.40476562 284.42926758 -348.80953125 283.85853516 -349.2265625 283.27050781 C-369.50681762 254.35045013 -382.48103914 219.14390778 -386 184 C-386.10957031 183.06027344 -386.21914062 182.12054687 -386.33203125 181.15234375 C-391.85392247 125.27080459 -377.1589285 65.09296717 -341.47167969 21.11669922 C-330.52323682 7.92592463 -318.79322779 -3.7942485 -305 -14 C-304.46117188 -14.39960937 -303.92234375 -14.79921875 -303.3671875 -15.2109375 C-283.84229607 -29.54201545 -262.00018117 -39.66059563 -239 -47 C-238.25669434 -47.23847656 -237.51338867 -47.47695313 -236.74755859 -47.72265625 C-156.31073828 -73.02293674 -62.87372986 -56.18193036 0 0 Z M-201.3125 4.1875 C-223.01671477 30.41897429 -220.32326239 72.60936887 -220.125 104.4375 C-220.08375 113.863125 -220.0425 123.28875 -220 133 C-181.72 133 -143.44 133 -104 133 C-103.18288914 124.67413945 -103.18288914 124.67413945 -102.85473633 116.40283203 C-102.84835648 115.45038605 -102.84197662 114.49794006 -102.83540344 113.51663208 C-102.83429062 112.52372162 -102.8331778 111.53081116 -102.83203125 110.5078125 C-102.82870285 109.44118378 -102.82537445 108.37455505 -102.82194519 107.27560425 C-102.81691348 105.02846706 -102.81453569 102.7813225 -102.81469727 100.53417969 C-102.81252803 97.16848771 -102.79437903 93.80313347 -102.77539062 90.4375 C-102.69808492 61.19469969 -103.35114049 25.62109179 -124.2578125 2.65625 C-135.84970972 -8.3638496 -150.00502414 -11.57196052 -165.62890625 -11.2734375 C-179.4469413 -10.65053121 -191.62435475 -5.88379224 -201.3125 4.1875 Z " fill="#EE1B2E" transform="translate(3336,923)"/>
<path d="M0 0 C0.53077148 0.3909082 1.06154297 0.78181641 1.60839844 1.18457031 C15.19113712 11.27974339 27.71826408 22.51356717 38 36 C38.80824219 37.00417969 39.61648438 38.00835938 40.44921875 39.04296875 C76.81259258 84.45352204 88.66895484 144.79017791 84.31640625 201.71875 C84 204 84 204 83 205 C80.08103082 205.11041564 77.18522124 205.15497406 74.2653656 205.15821838 C73.33718256 205.16315636 72.40899951 205.16809434 71.45268971 205.17318195 C68.31538554 205.1886433 65.17810199 205.19694196 62.04077148 205.20532227 C59.80013344 205.21489661 57.55949721 205.22490643 55.31886292 205.23532104 C49.20074071 205.26248824 43.08261076 205.28344997 36.96446109 205.30332303 C30.5342411 205.32521216 24.10404457 205.35260936 17.67384338 205.37937927 C6.83131931 205.42374731 -4.0112123 205.46451591 -14.85375977 205.50268555 C-25.92310725 205.54166134 -36.99244133 205.58307108 -48.06176758 205.62768555 C-48.73784569 205.63040982 -49.41392381 205.63313409 -50.11048914 205.63594092 C-52.83089871 205.64691017 -55.55130823 205.65788919 -58.2717177 205.66888306 C-70.82827459 205.71957176 -83.38483981 205.76814762 -95.94140625 205.81640625 C-97.19024511 205.821223 -98.43908396 205.82603976 -99.72576642 205.83100247 C-106.99095993 205.85891291 -114.25615591 205.88591939 -121.52135742 205.9116677 C-123.8186589 205.91987294 -126.11595967 205.9282821 -128.41325963 205.93690503 C-139.96397203 205.97988961 -151.51413899 206.00740725 -163.06491089 205.9760437 C-164.47740499 205.97291775 -164.47740499 205.97291775 -165.91843432 205.96972865 C-170.26832398 205.96000539 -174.618079 205.94584568 -178.96791172 205.92149448 C-180.47929387 205.91705575 -181.9906766 205.91281123 -183.50205994 205.90879822 C-185.43509429 205.8991902 -185.43509429 205.8991902 -187.40717983 205.88938808 C-191.0387664 206.0011935 -194.41987367 206.41622074 -198 207 C-198.07035895 214.99911582 -198.12323733 222.99809653 -198.15543652 230.99744797 C-198.17091174 234.71423228 -198.19180503 238.43080079 -198.22631836 242.14746094 C-198.97063439 283.50637162 -198.97063439 283.50637162 -180.015625 319.0703125 C-159.25104528 338.94958068 -128.48628507 345.67923788 -100.578125 345.21875 C-70.8834972 344.16854212 -39.93261213 335.10162363 -19 313 C-7.52669567 299.5204348 -2.27464337 283.47093884 4 267 C26.77 267 49.54 267 73 267 C71.22249851 286.55251644 61.94628352 303.02012756 51 319 C49.98679687 320.49466797 49.98679687 320.49466797 48.953125 322.01953125 C21.38776965 360.72502081 -21.94560506 378.48639504 -67.32348633 386.35913086 C-138.57760934 398.0271351 -216.87065393 396.07389644 -277.6875 352.75 C-279.81319837 351.1922932 -281.90650398 349.60169914 -284 348 C-285.01449219 347.23171875 -286.02898437 346.4634375 -287.07421875 345.671875 C-292.17020612 341.72017489 -292.17020612 341.72017489 -294 340 C-294 339.34 -294 338.68 -294 338 C-294.54527344 337.77828125 -295.09054687 337.5565625 -295.65234375 337.328125 C-298.74358589 335.57933577 -301.08517935 333.25507887 -303.5625 330.75 C-304.0869873 330.22059814 -304.61147461 329.69119629 -305.15185547 329.14575195 C-345.86610898 287.23905636 -364.12015405 228.23995371 -363.32528687 170.77664185 C-362.27250897 117.71263294 -342.26115381 65.00646288 -305.45947266 26.52685547 C-304.47491573 25.49684225 -303.4955186 24.46187541 -302.52099609 23.42236328 C-290.36281152 10.48536261 -276.47532965 -0.27658982 -261 -9 C-260.33371582 -9.38220703 -259.66743164 -9.76441406 -258.98095703 -10.15820312 C-184.20962083 -52.73046854 -70.31633579 -51.90481612 0 0 Z M-178 24 C-180.64911557 27.51260998 -182.87515069 31.15071269 -185 35 C-185.45117188 35.79535156 -185.90234375 36.59070313 -186.3671875 37.41015625 C-189.41862292 43.38983249 -191.09710444 49.63764369 -192.6875 56.125 C-192.89004395 56.94081543 -193.09258789 57.75663086 -193.30126953 58.59716797 C-197.53695839 76.94239921 -197.28403341 95.3790088 -197.19561768 114.08026123 C-197.18470878 116.99605396 -197.18515191 119.91180039 -197.18575573 122.82761002 C-197.18548372 125.65178743 -197.1800007 128.47593482 -197.17275429 131.30010223 C-197.16806311 133.28813821 -197.16629978 135.27618041 -197.16459656 137.26422119 C-197.15821671 138.47028015 -197.15183685 139.67633911 -197.14526367 140.91894531 C-197.14145187 141.975755 -197.13764008 143.0325647 -197.13371277 144.12139893 C-197.00663979 146.85705689 -196.56633611 149.32743183 -196 152 C-181.02313694 152.02332977 -166.04627528 152.04097956 -151.06939793 152.05181217 C-144.11583919 152.05697496 -137.16229173 152.06401734 -130.20874023 152.07543945 C-123.50442791 152.08644694 -116.80012975 152.09227621 -110.09580803 152.09487724 C-107.53162387 152.09673202 -104.96744038 152.10035364 -102.40326118 152.10573006 C-98.82554842 152.11293659 -95.24788481 152.11399111 -91.67016602 152.11352539 C-90.06255653 152.1189183 -90.06255653 152.1189183 -88.42247009 152.12442017 C-87.45346771 152.1230455 -86.48446533 152.12167084 -85.48609924 152.12025452 C-84.21540761 152.12163721 -84.21540761 152.12163721 -82.91904545 152.12304783 C-80.99140688 152.21154402 -80.99140688 152.21154402 -80 151 C-79.8260504 147.87697117 -79.71549812 144.77438854 -79.6484375 141.6484375 C-79.62474091 140.69058853 -79.60104431 139.73273956 -79.57662964 138.74586487 C-79.50250841 135.62235339 -79.43749494 132.49876478 -79.375 129.375 C-79.34231018 127.79019333 -79.34231018 127.79019333 -79.30895996 126.17337036 C-77.52638427 70.43225467 -77.52638427 70.43225467 -101.09765625 21.70703125 C-112.63339283 10.86303196 -126.70214576 7.34554516 -142.29296875 7.71484375 C-156.31492919 8.79345609 -168.41385615 13.52129154 -178 24 Z " fill="#EE1B2E" transform="translate(1876,904)"/>
<path d="M0 0 C49.5 0 99 0 150 0 C150 179.52 150 359.04 150 544 C100.83 544 51.66 544 1 544 C0.32571636 540.62858178 -0.12496351 538.21783323 -0.1241985 534.92292374 C-0.12644579 534.13907541 -0.12869308 533.35522707 -0.13100848 532.54762575 C-0.12706796 531.27021506 -0.12706796 531.27021506 -0.12304783 529.9669981 C-0.1247786 528.59329414 -0.1247786 528.59329414 -0.12654433 527.19183859 C-0.12920251 524.10660864 -0.12469534 521.02143032 -0.12025452 517.936203 C-0.12069038 515.70862021 -0.12156557 513.48103746 -0.12284368 511.25345498 C-0.12508565 505.11929694 -0.1210714 498.98515626 -0.11606562 492.85100043 C-0.11219927 486.91936224 -0.11302553 480.98772526 -0.11374746 475.05608627 C-0.11506177 462.92097094 -0.11171842 450.78586105 -0.10573006 438.6507473 C-0.09981513 426.63366863 -0.09596453 414.61659222 -0.09487724 402.5995121 C-0.0948085 401.85261488 -0.09473976 401.10571767 -0.09466894 400.3361872 C-0.09433061 396.54314779 -0.09402923 392.75010837 -0.09374207 388.95706896 C-0.09164108 362.08376383 -0.08490211 335.21046166 -0.07543945 308.3371582 C-0.06625663 282.22843441 -0.05917223 256.11971142 -0.05493164 230.01098633 C-0.05480011 229.20634782 -0.05466859 228.40170932 -0.05453308 227.57268783 C-0.05321457 219.49225337 -0.05193875 211.41181891 -0.05069422 203.33138445 C-0.04815793 186.87028103 -0.04533668 170.40917768 -0.04234314 153.94807434 C-0.04220585 153.19120226 -0.04206856 152.43433018 -0.04192711 151.65452258 C-0.03770362 128.45329038 -0.03227216 105.25205867 -0.02565002 82.05082703 C-0.02527947 80.75084338 -0.02490891 79.45085974 -0.02452713 78.11148266 C-0.01703212 52.07432156 -0.00836426 26.03716083 0 0 Z " fill="#EE1B2E" transform="translate(3443,737)"/>
<path d="M0 0 C49.17 0 98.34 0 149 0 C149 179.52 149 359.04 149 544 C99.83 544 50.66 544 0 544 C0 364.48 0 184.96 0 0 Z " fill="#EE1B2E" transform="translate(3655,737)"/>
</svg>