<?xml version="1.0" encoding="UTF-8" standalone="no"?>
<!-- Created with Inkscape (http://www.inkscape.org/) -->

<svg
   xmlns:dc="http://purl.org/dc/elements/1.1/"
   xmlns:cc="http://creativecommons.org/ns#"
   xmlns:rdf="http://www.w3.org/1999/02/22-rdf-syntax-ns#"
   xmlns:svg="http://www.w3.org/2000/svg"
   xmlns="http://www.w3.org/2000/svg"
   xmlns:sodipodi="http://sodipodi.sourceforge.net/DTD/sodipodi-0.dtd"
   xmlns:inkscape="http://www.inkscape.org/namespaces/inkscape"
   width="256mm"
   height="256mm"
   viewBox="0 0 907.08661 907.08661"
   id="svg4211"
   version="1.1"
   inkscape:version="0.91 r13725"
   sodipodi:docname="error_icon.svg">
  <defs
     id="defs4213" />
  <sodipodi:namedview
     id="base"
     pagecolor="#ffffff"
     bordercolor="#666666"
     borderopacity="1.0"
     inkscape:pageopacity="0.0"
     inkscape:pageshadow="2"
     inkscape:zoom="0.49497475"
     inkscape:cx="240.82122"
     inkscape:cy="617.07318"
     inkscape:document-units="px"
     inkscape:current-layer="layer1"
     showgrid="true"
     inkscape:window-width="1680"
     inkscape:window-height="958"
     inkscape:window-x="0"
     inkscape:window-y="1"
     inkscape:window-maximized="1">
    <inkscape:grid
       type="xygrid"
       id="grid4759" />
  </sodipodi:namedview>
  <metadata
     id="metadata4216">
    <rdf:RDF>
      <cc:Work
         rdf:about="">
        <dc:format>image/svg+xml</dc:format>
        <dc:type
           rdf:resource="http://purl.org/dc/dcmitype/StillImage" />
        <dc:title></dc:title>
      </cc:Work>
    </rdf:RDF>
  </metadata>
  <g
     inkscape:label="Layer 1"
     inkscape:groupmode="layer"
     id="layer1"
     transform="translate(0,-145.27559)">
    <circle
       style="opacity:0.30700001;fill:#664bff;fill-opacity:0.94117647;stroke:none;stroke-width:40;stroke-linejoin:miter;stroke-miterlimit:4;stroke-dasharray:none;stroke-opacity:1"
       id="path4761"
       cx="453.5433"
       cy="-598.81891"
       transform="scale(1,-1)"
       r="396" />
    <path
       style="fill:#404040"
       d="m 652.81498,609.33282 -186.85821,178.62323 31.32423,39.32716 0.54139,0.60156 c 3.80023,3.75869 10.63149,6.48614 16.2422,6.48614 l 4.70937,0 c 5.62588,0 12.45791,-2.71746 16.24434,-6.4625 l 0.29004,-0.2879 48.34628,-60.77071 48.13145,60.61388 0.54786,0.61016 c 2.02697,2.00481 7.21053,6.66659 11.58437,6.66659 5.48798,0 8.89668,-5.1327 8.89668,-13.39336 l 0,-212.01425 z"
       id="path4819"
       inkscape:connector-curvature="0" />
    <path
       style="fill:#404040;stroke:none"
       d="m 455.25508,342.05992 c -45.87154,0 -85.06336,9.98475 -116.48829,29.67422 -25.35227,15.88441 -45.65599,38.03055 -60.34531,65.82383 -24.46841,46.29349 -25.17324,92.58786 -25.17324,97.71309 l 0,248.30136 c 0,1.90935 9.4e-4,3.64607 0.0494,4.90488 0.29509,7.88833 5.58689,8.49923 7.20157,8.49923 3.20868,0 4.97888,-1.59804 10.08906,-6.65372 l 0.29219,-0.29219 48.21952,-60.88241 48.11641,60.38183 0.53925,0.60156 c 3.78782,3.74369 10.61771,6.46036 16.2422,6.46036 l 4.71152,0 c 5.62587,0 12.45576,-2.71745 16.24219,-6.4625 l 0.28789,-0.28575 48.35059,-60.77286 16.81152,21.10625 186.8582,-178.62323 0,-36.28281 c 0.003,-5.12659 -0.7027,-51.42038 -25.17109,-97.71524 -14.68933,-27.79328 -34.99442,-49.93806 -60.34532,-65.82383 -31.42491,-19.6881 -70.61673,-29.67207 -116.48827,-29.67207 z m 78.00976,140.9547 c 24.81866,0 44.93887,19.89948 44.93887,44.44687 0,24.54738 -20.12021,44.44687 -44.93887,44.44687 -24.81863,0 -44.93887,-19.89949 -44.93887,-44.44687 0,-24.54739 20.12024,-44.44688 44.93887,-44.44688 z m -157.19473,2.2 c 24.81866,0 44.94102,19.89948 44.94102,44.44687 0,24.54738 -20.12236,44.44687 -44.94102,44.44687 -24.81864,0 -44.93671,-19.89949 -44.93671,-44.44687 0,-24.54739 20.11807,-44.44687 44.93671,-44.44687 z"
       id="path3"
       inkscape:connector-curvature="0" />
  </g>
</svg>
