<?xml version="1.0" encoding="UTF-8"?><svg id="Camada_1" xmlns="http://www.w3.org/2000/svg" xmlns:xlink="http://www.w3.org/1999/xlink" viewBox="0 0 107.21 36.9"><defs><style>.cls-1{fill:#003dff;}.cls-2{fill:url(#Gradiente_sem_nome_4);}.cls-3{fill:#010326;}</style><linearGradient id="Gradiente_sem_nome_4" x1="9" y1="20.01" x2="22.3" y2="20.01" gradientTransform="matrix(1, 0, 0, 1, 0, 0)" gradientUnits="userSpaceOnUse"><stop offset="0" stop-color="#2ad2ff"/><stop offset="1" stop-color="#003dff"/></linearGradient></defs><path class="cls-3" d="M15.66,7.44c-6.08,0-11.01,4.93-11.01,11.01s4.93,11.01,11.01,11.01,11.01-4.93,11.01-11.01S21.75,7.44,15.66,7.44Zm7.59,5.75l-2.98,9.82c-.12,.38-.46,.64-.86,.64h-2.06l-.84-2.8c-.3-1.02-.58-2.01-.82-2.95-.22,.87-.49,1.8-.84,2.93l-.85,2.82h-2.13c-.4,0-.74-.26-.86-.64l-2.99-9.86h2.37c.4,0,.75,.27,.86,.65l.76,2.66c.3,1.05,.57,2.02,.8,2.97,.25-.91,.53-1.9,.86-2.97l.69-2.27c.19-.62,.75-1.04,1.4-1.04s1.22,.43,1.4,1.04l.68,2.27c.33,1.11,.59,2.03,.84,2.97,.25-1.03,.53-2.04,.8-2.97l.76-2.66c.11-.38,.46-.65,.86-.65h2.16v.04Z"/><path class="cls-2" d="M21.04,16.38c-.41,0-.77,.27-.88,.66l-.76,2.66c-.26,.91-.53,1.89-.78,2.9-.24-.92-.5-1.82-.82-2.9l-.68-2.27c-.19-.63-.76-1.05-1.42-1.05s-1.23,.42-1.42,1.05l-.69,2.27c-.32,1.04-.6,2.02-.84,2.9-.23-.92-.48-1.87-.78-2.9l-.76-2.66c-.11-.39-.47-.66-.88-.66h-1.34l2.01,6.63c.12,.39,.47,.65,.87,.65h2.15l.86-2.83c.34-1.09,.6-2,.82-2.86,.23,.91,.5,1.88,.8,2.88l.83,2.78v.04h2.08c.41,0,.76-.26,.88-.65l2.01-6.63h-1.26Z"/><path class="cls-3" d="M31.55,14.86h1.63c.44,0,.84,.29,.97,.71l.52,1.62c.24,.74,.45,1.43,.65,2.14h.03c.21-.69,.45-1.43,.69-2.14l.52-1.53c.16-.48,.62-.8,1.12-.8h0c.51,0,.96,.32,1.12,.81l.51,1.53c.26,.77,.47,1.43,.68,2.14h.03c.2-.71,.41-1.38,.65-2.14l.52-1.62c.14-.42,.53-.71,.97-.71h1.47l-2.29,6.71c-.14,.41-.53,.69-.97,.69h-1.41l-.66-1.97c-.24-.72-.47-1.44-.66-2.12h-.03c-.2,.68-.42,1.37-.68,2.11l-.68,1.99h-1.47c-.44,0-.83-.28-.97-.69l-2.29-6.71Z"/><path class="cls-1" d="M76.83,14.88h1.63c.44,0,.84,.29,.97,.71l.52,1.62c.24,.74,.45,1.43,.65,2.14h.03c.21-.69,.45-1.43,.69-2.14l.52-1.53c.16-.48,.62-.8,1.12-.8h0c.51,0,.96,.32,1.12,.81l.51,1.53c.26,.77,.47,1.43,.68,2.14h.03c.2-.71,.41-1.38,.65-2.14l.52-1.62c.14-.42,.53-.71,.97-.71h1.47l-2.29,6.71c-.14,.41-.53,.69-.97,.69h-1.41l-.66-1.97c-.24-.72-.47-1.44-.66-2.12h-.03c-.2,.68-.42,1.37-.68,2.11l-.68,1.99h-1.47c-.44,0-.83-.28-.97-.69l-2.29-6.71Z"/><path class="cls-3" d="M44.78,10.76h2.29v7.22l.03,.02,2.28-2.77c.19-.24,.48-.37,.79-.37h2.12l-2.83,3.31,3.04,4.09h-2.18c-.33,0-.64-.16-.83-.43l-2.39-3.35h-.03v3.78h-1.27c-.56,0-1.02-.46-1.02-1.02V10.76Z"/><path class="cls-3" d="M53.65,19.75c.98,.58,2.11,.82,2.79,.82,.6,0,.96-.16,.96-.55,0-.55-.79-.49-1.86-.76-1.34-.33-2.13-.89-2.13-2.06,.01-1.5,1.34-2.35,3.09-2.35,.85,0,1.9,.17,2.71,.56v1.89c-.93-.53-2.03-.76-2.66-.76-.58,0-.92,.17-.92,.5,0,.52,.76,.47,1.81,.73,1.35,.33,2.17,.85,2.17,2.07-.01,1.55-1.37,2.4-3.18,2.4-.85,0-1.94-.17-2.79-.59v-1.91Z"/><path class="cls-1" d="M60.73,11.36h3.24c1.29,0,2.38,.12,3.24,.57,.95,.5,1.76,1.43,1.76,2.91,0,1.34-.65,2.3-1.57,2.84-.84,.5-1.93,.68-3.52,.68h-.75v3.9h-1.37c-.56,0-1.02-.46-1.02-1.02V11.36Zm3.27,5.06c.95,0,1.49-.05,1.9-.27,.44-.24,.68-.65,.68-1.19,0-.62-.27-1.05-.77-1.28-.44-.2-1.02-.23-1.87-.23h-.81v2.97h.87Z"/><path class="cls-1" d="M72.9,14.86c2.25,0,3.93,1.61,3.93,3.69s-1.68,3.69-3.93,3.69-3.93-1.61-3.93-3.69,1.68-3.69,3.93-3.69Zm0,5.5c.99,0,1.75-.8,1.75-1.81s-.76-1.81-1.75-1.81-1.75,.8-1.75,1.81,.76,1.81,1.75,1.81Z"/><path class="cls-1" d="M91.74,19.12c.24,.97,1.05,1.42,2.05,1.42,.79,0,1.65-.27,2.39-.77v1.82c-.69,.43-1.75,.64-2.68,.64-2.32,0-4-1.45-4-3.65s1.75-3.71,3.7-3.71c1.73,0,3.37,1.15,3.37,3.51,0,.24-.01,.56-.04,.74h-4.78Zm2.82-1.37c-.13-.76-.69-1.22-1.39-1.22s-1.26,.42-1.45,1.22h2.84Z"/><path class="cls-1" d="M102.09,14.83c-.91,0-1.63,.37-2.14,1.09l-.03-.02v-.99h-2.22v6.32c0,.56,.46,1.02,1.02,1.02h1.22v-4.3c0-.56,.46-1.02,1.02-1.02h1.61v-2.05c-.16-.04-.33-.06-.48-.06Z"/></svg>